<svg id="1" data-name="1" xmlns="http://www.w3.org/2000/svg" viewBox="0 0 2000 2000">
    <defs>
        <style>
            .c{fill:#fff}
        </style>
    </defs>
    <path fill="none" d="M0 0h2000v2000H0z"/>
    <path class="c" transform="rotate(-27 1000.65 1000.008)" d="M332.6 331.96h1336.08v1336.08H332.6z"/>
    <path transform="rotate(-24 1000.635 1000.007)" fill="#fa0" d="M332.6 331.96h1336.08v1336.08H332.6z"/>
    <path transform="rotate(-21 1000.646 1000.013)" fill="#aaa" d="M332.6 331.96h1336.08v1336.08H332.6z"/>
    <path transform="rotate(-18 1000.647 999.994)" fill="#55f" d="M332.6 331.96h1336.08v1336.08H332.6z"/>
    <path transform="rotate(-15 1000.646 999.989)" fill="#5f5" d="M332.6 331.96h1336.08v1336.08H332.6z"/>
    <path transform="matrix(0.98, -0.21, 0.21, 0.98, -186.05, 229.9)" fill="#67cbdf" d="M332.6 331.96h1336.08v1336.08H332.6z"/>
    <path transform="rotate(-9 1000.666 999.97)" fill="#f55" d="M332.6 331.96h1336.08v1336.08H332.6z"/>
    <path transform="rotate(-6 1000.605 1000.028)" fill="#f5f" d="M332.6 331.96h1336.08v1336.08H332.6z"/>
    <path transform="rotate(-3 1000.644 999.912)" fill="#ff5" d="M332.6 331.96h1336.08v1336.08H332.6z"/>
    <path fill="#444" d="M332.6 331.96h1336.08v1336.08H332.6z"/>
    <path class="c" d="m1477.71 572.75-136.63 819.8c-1.6 10.14-8 18.68-17.08 24a34.68 34.68 0 0 1-16.55 4.27 36.68 36.68 0 0 1-12.81-2.67l-241.78-98.74-129.16 157.46a33.15 33.15 0 0 1-26.15 12.28 30.43 30.43 0 0 1-11.74-2.13 34.06 34.06 0 0 1-22.42-32v-186.3l461.14-565.21L754 1197.2l-210.82-86.46c-12.28-4.8-20.28-16-21.35-29.35a34.49 34.49 0 0 1 17.08-31.49L1427 537.52a33.1 33.1 0 0 1 17.08-4.8 34 34 0 0 1 19.21 5.87 34.58 34.58 0 0 1 14.42 34.16Z"/>
</svg>