<svg xmlns="http://www.w3.org/2000/svg" width="538.71577" height="579.81872" viewBox="0 0 538.71577 579.81872" xmlns:xlink="http://www.w3.org/1999/xlink"><path d="M506.76759,441.45795H101.83199c-7.51245-.00873-13.60031-6.09656-13.60901-13.60901V98.12604c.0087-7.51244,6.09659-13.6003,13.60901-13.60899H506.76759c7.51245,.0087,13.60028,6.09656,13.60901,13.60899V427.84894c-.00873,7.51245-6.09656,13.60028-13.60901,13.60901Z" fill="#e6e6e6"/><path d="M467.42311,432.2785H111.01366c-7.51245-.00873-13.60031-6.09656-13.60901-13.60901V107.31283c.0087-7.51242,6.09659-13.6003,13.60901-13.60899H497.58809c7.51245,.0087,13.60028,6.09657,13.60901,13.60899V388.50445c-.02716,24.16443-19.60956,43.74683-43.77399,43.77405Z" fill="#fff"/><path d="M369.4825,164.10681H206.72933c-1.93842,0-3.50977-1.57138-3.50977-3.50977s1.57135-3.5098,3.50977-3.5098h162.75317c1.93842,0,3.50977,1.57138,3.50977,3.5098s-1.57135,3.50977-3.50977,3.50977Z" fill="#6c63ff"/><path d="M451.87105,201.55386H206.72933c-1.93842,0-3.50977-1.57138-3.50977-3.5098s1.57135-3.50977,3.50977-3.50977h245.14172c1.93842,0,3.50977,1.57138,3.50977,3.50977s-1.57135,3.5098-3.50977,3.5098Z" fill="#e6e6e6"/><path d="M451.87105,239.00091H206.72933c-1.93842,0-3.50977-1.57138-3.50977-3.50977s1.57135-3.5098,3.50977-3.5098h245.14172c1.93842,0,3.50977,1.57138,3.50977,3.5098s-1.57135,3.50977-3.50977,3.50977Z" fill="#e6e6e6"/><path d="M451.87105,276.448H206.72933c-1.93842,0-3.50977-1.57138-3.50977-3.50977s1.57135-3.5098,3.50977-3.5098h245.14172c1.93842,0,3.50977,1.57138,3.50977,3.5098s-1.57135,3.50977-3.50977,3.50977Z" fill="#e6e6e6"/><path d="M451.87105,313.89505H206.72933c-1.93842,0-3.50977-1.57138-3.50977-3.5098s1.57135-3.50977,3.50977-3.50977h245.14172c1.93842,0,3.50977,1.57138,3.50977,3.50977s-1.57135,3.5098-3.50977,3.5098Z" fill="#e6e6e6"/><path d="M440.84718,373.56909c-9.81519,0-17.77191-7.95679-17.77191-17.77197s7.95679-17.77194,17.77197-17.77191c9.81519,0,17.77191,7.95679,17.77191,17.77197h0c-.00006,9.81519-7.95679,17.77191-17.77197,17.77191Z" fill="#6c63ff"/><path d="M450.84529,354.95294l-5.03827-7.35388c-.4646-.68201-1.39417-.85818-2.07617-.39359-.68195,.46463-.85815,1.39417-.39355,2.07617l.00446,.00647,3.25842,4.75601h-12.76538c-.9682-.00287-1.75543,.77966-1.7583,1.74786s.77966,1.75543,1.74786,1.7583h12.93616l-3.41876,4.98999c-.4635,.68274-.28571,1.612,.39703,2.0755,.67865,.46063,1.60175,.28815,2.06824-.38647l5.03827-7.35388c.33362-.59741,.33362-1.32507,0-1.92249Z" fill="#fff"/><path d="M536.9474,35.89259H71.6544c-.99774-.02133-1.78931-.84746-1.76797-1.84521,.02069-.96771,.80026-1.74727,1.76797-1.76796h465.293c.99774,.02133,1.78931,.84746,1.76794,1.84521-.02069,.96771-.80023,1.74727-1.76794,1.76796Z" fill="#cacaca"/><path d="M129.88332,392.03558c2.69046-2.25092,3.04681-6.25665,.7959-8.94714-.24002-.28687-.50488-.552-.79156-.79224l-3.85318-33.29462-12.23428,2.83279,6.79901,31.56052c-2.08167,2.84705-1.46118,6.84253,1.38586,8.92419,2.38205,1.7417,5.64722,1.62445,7.89825-.28351Z" fill="#ffb6b6"/><path d="M128.61916,354.4306l-14.16388,8.83612s-.86215,5.17871-1.83612-7.83612c-.10168-1.35852,.84622-3.72528,.742-5.11966-.11755-1.57309-4.62335-2.2887-4.742-3.88034-.0845-1.13293,1.21814-2.1409,1.134-3.27075-.12741-1.71158-.254-3.41367-.37827-5.08826-.104-1.401-1.6557-2.289-1.75574-3.64099-.10089-1.36349,1.25-3.19043,1.15479-4.48245-.71393-9.68848,1.75491-34.06335,1.75491-34.55923-.19077-1.24442-.71036-2.41531-1.5051-3.39169l.75601-2.26111-.49991-4.24243c-.65692-5.57474,.51501-11.21204,3.33932-16.06308h0l3.59717-2.35538,16.59769,27.91714c-6.98453,24.15781-11.54385,33.64658-4.19489,59.43823Z" fill="#6c63ff"/><polygon points="117.56702 562.58543 126.13502 562.58543 130.21301 529.53642 117.56702 529.53642 117.56702 562.58543" fill="#ffb6b6"/><path d="M114.77113,556.7168l13.68857-.81702v5.86481l13.0141,8.98798c1.66492,1.14954,2.08273,3.43109,.9332,5.09601-.68396,.99066-1.811,1.58203-3.01483,1.58197h-16.29678l-2.80899-5.80115-1.09677,5.80115h-6.14453l1.72604-20.71375Z" fill="#2f2e41"/><polygon points="165.69602 562.58543 174.26402 562.58543 178.34102 529.53642 165.69602 529.53642 165.69602 562.58543" fill="#ffb6b6"/><path d="M162.8994,556.7168l13.68857-.81702v5.86481l13.0141,8.98798c1.66492,1.14954,2.08276,3.43109,.93323,5.09601-.68402,.99066-1.81104,1.58203-3.01489,1.58197h-16.29678l-2.80899-5.80115-1.09671,5.80121h-6.14453l1.72601-20.71381Z" fill="#2f2e41"/><path d="M113.93041,534.08581h.03333l1.64783-78.70483c-2.16583-4.17767-2.09665-9.16217,.18436-13.27814l.23593-.42706-.61169-2.83545c-.78564-3.64294-.42511-7.43976,1.0321-10.86975l1.53726-50.12524c-5.492-35.59256,20.68112-58.80466,20.68112-58.80466h39.20764l8.41745,28.92029c5.56464,54.21457,4.55493,132.01437-4.27539,183.19821l.24072,.1217c.94843,.52899,1.31409,1.70972,.83063,2.68213-.40802,1.18213-1.44147,1.89789-2.30829,1.59869l-20.70612-.72021c-.94852-.52893-1.31418-1.70972-.8306-2.68213,.40799-1.18213,1.44147-1.89783,2.30829-1.59869l1.4079,.7121-1.45267-2.95715c-1.78177-3.62714-1.43726-7.93823,.89792-11.23639h0l-.25443-6.50977h0c-2.20139-2.57782-2.93311-6.10175-1.94009-9.3429l1.39676-4.55884-1.64999-42.21698,.33322-9.47119-.68646-10.74493-3.17386-48.33057-12.01355,59.43298-12.27142,89.34686c.60062,.54187,.8642,1.36444,.69037,2.15448-.26059,1.05988-1.22098,1.79761-2.31223,1.77612h-16.65585c-1.25314-.00116-2.26804-1.01801-2.26688-2.27112,.00021-.20325,.02771-.40552,.08176-.60144,.28894-.9953,1.20868-1.67383,2.24493-1.65613Z" fill="#2f2e41"/><path d="M209.20992,379.09808c2.21375-2.72113,1.80243-6.72162-.9187-8.93536-.29016-.23602-.60052-.44598-.92761-.62738l-10.10931-31.95596-11.47314,5.1058,12.672,29.69373c-1.50281,3.19067-.13452,6.99554,3.05621,8.49835,2.66962,1.25739,5.85315,.52185,7.70062-1.77917h-.00006Z" fill="#ffb6b6"/><path d="M167.61156,277.5068s11.52975,40.80206,11.0076,44.92377c-1.07687,8.49966-54.05972,34.62692-58,23l.49393-3.82181c-1.9906-3.98123,10.15421-19.78131,10.74377-21.84821,.74908-2.64258-2.64258-11.31946-2.64258-11.31946,0,0,2.34436-7.92081,1.96979-12.82452-.38147-4.90372-1.51199-4.14771-5.6597-7.17178-4.14767-3.01712-10.93799-16.9722-10.93799-16.9722,0,0,3.01715-13.58057,3.01715-16.22314s12.3945-7.14401,13.8996-8.64914c.65521-.87424,1.20685-1.82153,1.6438-2.82288,.30518-.61035,.11099-2.02533,.43701-2.72586,.20807-.45776,.93634-.1734,1.1514-.64499,.20807-.45776,.02774-.98489,.23578-1.43576,.27051-.59647,.92249-1.11667,1.17911-1.67847,1.17911-2.58014,2.18481-4.68176,2.49692-4.68176,.74908,0,24.89999,3.39862,24.89999,3.39862,1.31448,2.03296,2.8295,3.92899,4.52225,5.6597,2.64258,2.63565,15.00931,9.05139,15.00931,9.05139l-15.46713,26.7865Z" fill="#6c63ff"/><path d="M200.22267,346.15008c-1.88654,1.8866-11.22198,10.54852-11.60352,8.28046-.37451-2.26111-.57843-2.53137-2.09045-3.28046-1.51202-.75601-1.51202-1.13055-1.88654-3.77316-.37457-2.64258-3.77316-5.28519-3.39169-6.41574,.37454-1.13055,.0249,.30768,.0249-.82983,0-1.13055-1.13055-5.27823-2.64258-6.03427-1.5051-.75601-3.77316-1.50507-2.63565-3.39169,1.13055-1.88654-10.6467-58.48383-10.6467-58.48383l10.56345-20.74536,7.16479-.75601s2.17712,1.24573,2.85925,12.47653c.03455,.56876,.65479,1.61267,.68121,2.2338,.02191,.51627-.54865,.6015-.5329,1.1554,.0033,.11829,.00659,.23743,.00964,.35745,.01428,.5506,1.50098,.95566,1.52332,1.48715,.03986,.94949,.62384,7.0047,.68677,7.89462,.07092,1.0033,.15472,1.9697,.25128,2.89923,1.04254,10.12073,1.41583,10.97568,2.06189,14.20615,1,5,5.14539,34.20227,5.14539,34.20227,0,0,3.01709,.74908,3.01709,3.39169s3.32764,7.95386,1.82251,10.97101c-1.51202,3.02405,1.50519,2.2681-.38147,4.1546Z" fill="#6c63ff"/><circle cx="148.8745" cy="213.9424" r="17.89357" fill="#ffb8b8"/><path d="M110.31502,251.54758c-3.78656-1.34195-7.57309-2.68634-11.35962-4.0332,.65262-1.09512,1.4838-2.07336,2.45911-2.89432,3.60519-3.01041,8.58139-3.55444,13.1586-4.57001,4.5845-1.01556,9.5607-3.09744,11.23639-7.47882,1.74091-4.55551-.78345-9.47366-2.24875-14.11618-2.16422-6.51166-1.90143-13.58618,.73993-19.91934,2.73499-6.33997,8.26752-11.04382,14.96487-12.72339,6.63007-1.47256,14.12341,.92847,18.20013,6.35446,5.43567-1.63062,11.23318,1.05328,13.50684,6.2529,1.0488,2.38864,.8869,5.13562-.43521,7.38452-1.41452,2.13992-4.43942,3.23526-6.71716,2.04562l1.32022-3.35132c-4.08401,1.38547-6.73889,8.76999-6.18765,13.04984,.54404,4.27258,3.0394,8.01559,5.57108,11.50476s5.23007,7.01456,6.31815,11.18555c1.56686,5.99899-.5513,12.55658-4.46841,17.36594s-9.43738,8.07364-15.1535,10.4747c-4.27887,1.79898-8.72549,3.16946-13.27469,4.09131,.81244-1.58136,1.61761-3.16272,2.43005-4.74408l-9.64047,5.83215c-1.86426,.18134-3.74307,.29016-5.6218,.32642-5.46945,.0943-11.0477-.47879-16.05301-2.66217-5.01242-2.1907-9.41559-6.15863-11.2291-11.31619-.58139-1.66821-.8566-3.42773-.81235-5.19379,4.43204-.95752,8.86417-1.91263,13.29636-2.86536Z" fill="#2f2e41"/><path d="M283.23262,578.79364h-33.18652l-.14258-.25879c-.42432-.76953-.83398-1.58502-1.2168-2.42285-3.41846-7.31836-4.86328-15.68848-6.13818-23.07324l-.96002-5.56641c-.32257-1.87054,.93225-3.64838,2.8028-3.97095,.91565-.15796,1.85626,.06165,2.60736,.60864,5.04346,3.66986,10.08887,7.33624,15.13623,10.99902,1.91113,1.39062,4.09375,3,6.18408,4.73926,.20166-.97949,.4126-1.96191,.62354-2.93066,.40363-1.85602,2.23541-3.03345,4.09143-2.62982,.90845,.19757,1.69824,.75452,2.18933,1.54388l3.88281,6.23828c2.83197,4.55566,5.33154,9.04492,4.82227,13.88672,.0025,.0589-.00195,.11792-.01318,.17578-.10187,.79529-.29083,1.57703-.56348,2.33105l-.11908,.33008Z" fill="#f0f0f0"/><path d="M316.54201,579.51141l-315.35751,.30731c-.65759-.00342-1.1879-.53931-1.18448-1.1969,.00342-.65271,.53174-1.18103,1.18448-1.18445l315.35751-.30731c.65759,.00342,1.18787,.53931,1.18445,1.1969-.00342,.65271-.53168,1.18103-1.18445,1.18445Z" fill="#cacaca"/><ellipse cx="89.88544" cy="8.64507" rx="8.45661" ry="8.64507" fill="#3f3d56"/><ellipse cx="119.0992" cy="8.64507" rx="8.45661" ry="8.64507" fill="#3f3d56"/><ellipse cx="148.31295" cy="8.64507" rx="8.45661" ry="8.64507" fill="#3f3d56"/><path d="M181.62437,15.47786c-.25977,0-.51904-.10059-.71484-.30078l-5.70605-5.83301c-.38037-.38867-.38037-1.00977,0-1.39844l5.70605-5.83252c.38721-.39453,1.021-.40088,1.41406-.01562,.39502,.38623,.40186,1.01953,.01562,1.41406l-5.02197,5.1333,5.02197,5.13379c.38623,.39453,.37939,1.02783-.01562,1.41406-.19434,.19043-.44678,.28516-.69922,.28516Z" fill="#3f3d56"/><path d="M191.21275,15.47786c-.25244,0-.50488-.09473-.69922-.28516-.39502-.38623-.40186-1.01904-.01562-1.41406l5.02148-5.13379-5.02148-5.1333c-.38623-.39453-.37939-1.02783,.01562-1.41406,.39404-.38672,1.02783-.37939,1.41406,.01562l5.70557,5.83252c.38037,.38867,.38037,1.00977,0,1.39844l-5.70557,5.83301c-.1958,.2002-.45508,.30078-.71484,.30078Z" fill="#3f3d56"/><path d="M489.72257,1.0009h-10.60999c-1.21002,0-2.19,.97998-2.19,2.19V13.8109c0,1.21002,.97998,2.19,2.19,2.19h10.60999c1.21002,0,2.20001-.97998,2.20001-2.19V3.1909c0-1.21002-.98999-2.19-2.20001-2.19Z" fill="#3f3d56"/><path d="M463.72257,1.0009h-10.60999c-1.21002,0-2.19,.97998-2.19,2.19V13.8109c0,1.21002,.97998,2.19,2.19,2.19h10.60999c1.21002,0,2.20001-.97998,2.20001-2.19V3.1909c0-1.21002-.98999-2.19-2.20001-2.19Z" fill="#3f3d56"/><path d="M514.22257,1.5009h-10.60999c-1.21002,0-2.19,.97998-2.19,2.19V14.3109c0,1.21002,.97998,2.19,2.19,2.19h10.60999c1.21002,0,2.20001-.97998,2.20001-2.19V3.6909c0-1.21002-.98999-2.19-2.20001-2.19Z" fill="#3f3d56"/><path d="M354.30088,5.54088h-84.81c-1.48004,0-2.67004,1.20001-2.67004,2.67004s1.19,2.66998,2.67004,2.66998h84.81c1.46997,0,2.66998-1.20001,2.66998-2.66998s-1.20001-2.67004-2.66998-2.67004Z" fill="#3f3d56"/></svg>