<?xml version="1.0" encoding="UTF-8" standalone="no"?>
<svg
   version="1.1"
   width="2355.3796"
   height="835.99475"
   viewBox="0 0 2355.3796 835.99475"
   style="clip-rule:evenodd;fill-rule:evenodd;image-rendering:optimizeQuality;shape-rendering:geometricPrecision;text-rendering:geometricPrecision"
   id="svg2354"
   sodipodi:docname="logo-marker-light.svg"
   inkscape:version="1.2.2 (b0a8486541, 2022-12-01)"
   xmlns:inkscape="http://www.inkscape.org/namespaces/inkscape"
   xmlns:sodipodi="http://sodipodi.sourceforge.net/DTD/sodipodi-0.dtd"
   xmlns="http://www.w3.org/2000/svg"
   xmlns:svg="http://www.w3.org/2000/svg">
  <defs
     id="defs2358" />
  <sodipodi:namedview
     id="namedview2356"
     pagecolor="#ffffff"
     bordercolor="#000000"
     borderopacity="0.25"
     inkscape:showpageshadow="2"
     inkscape:pageopacity="0.0"
     inkscape:pagecheckerboard="0"
     inkscape:deskcolor="#d1d1d1"
     showgrid="false"
     inkscape:zoom="0.47384511"
     inkscape:cx="1148.0545"
     inkscape:cy="423.13405"
     inkscape:window-width="1920"
     inkscape:window-height="1011"
     inkscape:window-x="0"
     inkscape:window-y="0"
     inkscape:window-maximized="1"
     inkscape:current-layer="svg2354" />
  <g
     id="g2044"
     transform="translate(-324.5,-90.505247)">
    <path
       style="opacity:0.991"
       fill="#f6e245"
       d="m 756.5,111.5 c -0.244,2.763 -1.577,4.929 -4,6.5 -42.92,34.279 -85.586,68.779 -128,103.5 -5.333,0 -10.667,0 -16,0 -0.333,0 -0.667,0 -1,0 5.596,-6.77 11.429,-13.436 17.5,-20 35.404,-36.568 70.571,-73.235 105.5,-110 1.574,-1.1309 3.241,-1.2975 5,-0.5 6.922,7.0907 13.922,13.924 21,20.5 z"
       id="path2042" />
  </g>
  <g
     id="g2048"
     transform="translate(-324.5,-90.505247)">
    <path
       style="opacity:0.996"
       fill="#428eda"
       d="m 824.5,117.5 c 0.528,1.347 0.695,2.681 0.5,4 -59.116,33.473 -118.283,66.807 -177.5,100 -4.202,0.317 -8.202,-0.017 -12,-1 43.758,-31.39 87.758,-62.557 132,-93.5 1.323,-0.816 1.989,-1.983 2,-3.5 12.905,-9.37 26.072,-18.37 39.5,-27 1.979,1.895 3.979,3.895 6,6 2.996,5.151 6.162,10.151 9.5,15 z"
       id="path2046" />
  </g>
  <g
     id="g2052"
     transform="translate(-324.5,-90.505247)">
    <path
       style="opacity:1"
       fill="#a39731"
       d="m 756.5,111.5 c 4.333,4 8.667,8 13,12 -0.011,1.517 -0.677,2.684 -2,3.5 -44.242,30.943 -88.242,62.11 -132,93.5 -0.333,0 -0.667,0 -1,0 -3.228,0.914 -6.561,1.247 -10,1 42.414,-34.721 85.08,-69.221 128,-103.5 2.423,-1.571 3.756,-3.737 4,-6.5 z"
       id="path2050" />
  </g>
  <g
     id="g2056"
     transform="translate(-324.5,-90.505247)">
    <path
       style="opacity:1"
       fill="#94d405"
       d="m 895.5,150.5 c -66.835,21.621 -133.835,42.454 -201,62.5 -3.764,0.852 -7.097,2.352 -10,4.5 -4.637,1.425 -9.304,2.758 -14,4 -4.863,0.319 -9.53,-0.014 -14,-1 59.093,-28.377 118.427,-56.544 178,-84.5 1.256,-0.417 1.923,-1.25 2,-2.5 13.598,-6.037 27.098,-12.371 40.5,-19 0.772,0.145 1.439,0.478 2,1 6.058,11.447 11.558,23.113 16.5,35 z"
       id="path2054" />
  </g>
  <g
     id="g2060"
     transform="translate(-324.5,-90.505247)">
    <path
       style="opacity:1"
       fill="#2b5f92"
       d="m 824.5,117.5 c 4,5.333 8,10.667 12,16 -0.077,1.25 -0.744,2.083 -2,2.5 -59.573,27.956 -118.907,56.123 -178,84.5 -0.333,0 -0.667,0 -1,0 -2.554,0.888 -5.221,1.221 -8,1 59.217,-33.193 118.384,-66.527 177.5,-100 0.195,-1.319 0.028,-2.653 -0.5,-4 z"
       id="path2058" />
  </g>
  <g
     id="g2064"
     transform="translate(-324.5,-90.505247)">
    <path
       style="opacity:0.998"
       fill="#6a9401"
       d="m 895.5,150.5 c 1.894,4.615 4.227,8.948 7,13 -0.111,0.617 -0.444,1.117 -1,1.5 -72.263,17.905 -144.596,35.405 -217,52.5 2.903,-2.148 6.236,-3.648 10,-4.5 67.165,-20.046 134.165,-40.879 201,-62.5 z"
       id="path2062" />
  </g>
  <g
     id="g2068"
     transform="translate(-324.5,-90.505247)">
    <path
       style="opacity:1"
       fill="#fd4f57"
       d="m 969.5,209.5 c -77.501,3.595 -154.835,7.595 -232,12 -22.333,0 -44.667,0 -67,0 4.696,-1.242 9.363,-2.575 14,-4 72.404,-17.095 144.737,-34.595 217,-52.5 0.556,-0.383 0.889,-0.883 1,-1.5 17.479,-4.663 35.146,-8.496 53,-11.5 0.829,1.816 1.663,3.649 2.5,5.5 3.858,17.421 7.691,34.754 11.5,52 z"
       id="path2066" />
  </g>
  <g
     id="g2072"
     transform="translate(-324.5,-90.505247)">
    <path
       style="opacity:1"
       fill="#b2363d"
       d="m 969.5,209.5 c 1.781,3.7 2.781,7.7 3,12 -78.333,0 -156.667,0 -235,0 77.165,-4.405 154.499,-8.405 232,-12 z"
       id="path2070" />
  </g>
  <g
     id="g2076"
     transform="translate(-324.5,-90.505247)">
    <path
       style="opacity:0.986"
       fill="#3c3b3b"
       d="m 634.5,220.5 c 0.333,0 0.667,0 1,0 3.798,0.983 7.798,1.317 12,1 2.779,0.221 5.446,-0.112 8,-1 2.071,1.309 4.571,1.975 7.5,2 2.69,-0.003 5.19,-0.336 7.5,-1 22.333,0 44.667,0 67,0 78.333,0 156.667,0 235,0 20,0 40,0 60,0 0,51.333 0,102.667 0,154 -0.99,8.484 -1.33,17.151 -1,26 0,4 0,8 0,12 0,5 0,10 0,15 -0.26,3.769 0.08,7.436 1,11 -0.99,6.145 -1.32,12.478 -1,19 0,3 0,6 0,9 0,15.333 0,30.667 0,46 -0.33,76.404 0,152.738 1,229 0,23.333 0,46.667 0,70 -57,0 -114,0 -171,0 -9.667,0 -19.333,0 -29,0 -4.763,-0.274 -9.43,0.059 -14,1 -6.145,-0.99 -12.478,-1.323 -19,-1 -4,0 -8,0 -12,0 -16.333,-1.333 -32.667,-1.333 -49,0 -0.333,0 -0.667,0 -1,0 -76.333,0 -152.667,0 -229,0 -22.333,0 -44.667,0 -67,0 0,-61 0,-122 0,-183 0,-0.333 0,-0.667 0,-1 0.994,-9.486 1.327,-19.152 1,-29 0.166,-9.006 0,-18.006 -0.5,-27 -1.039,-0.744 -1.539,-1.744 -1.5,-3 0.617,0.111 1.117,0.444 1.5,1 0.5,-11.995 0.667,-23.995 0.5,-36 0.333,-85.835 -10e-4,-171.502 -1,-257 0,-18.667 0,-37.333 0,-56 55.333,0 110.667,0 166,0 0.333,0 0.667,0 1,0 4.153,0.666 8.487,0.999 13,1 4.722,-0.008 9.055,-0.675 13,-2 z"
       id="path2074" />
  </g>
  <g
     id="g2080"
     transform="translate(-324.5,-90.505247)">
    <path
       style="opacity:0.999"
       fill="#716c3e"
       d="m 634.5,220.5 c -3.945,1.325 -8.278,1.992 -13,2 -4.513,-0.001 -8.847,-0.334 -13,-1 5.333,0 10.667,0 16,0 3.439,0.247 6.772,-0.086 10,-1 z"
       id="path2078" />
  </g>
  <g
     id="g2084"
     transform="translate(-324.5,-90.505247)">
    <path
       style="opacity:1"
       fill="#576c2c"
       d="m 655.5,220.5 c 0.333,0 0.667,0 1,0 4.47,0.986 9.137,1.319 14,1 -2.31,0.664 -4.81,0.997 -7.5,1 -2.929,-0.025 -5.429,-0.691 -7.5,-2 z"
       id="path2082" />
  </g>
  <g
     id="g2088"
     transform="translate(-324.5,-90.505247)">
    <path
       style="opacity:1"
       fill="#444444"
       d="m 455.5,237.5 c 187.333,0 374.667,0 562,0 0.17,186.334 0,372.667 -0.5,559 -93.43,0.666 -186.93,0.999 -280.5,1 -93.57,-10e-4 -187.07,-0.334 -280.5,-1 -0.5,-186.333 -0.667,-372.666 -0.5,-559 z"
       id="path2086" />
  </g>
  <g
     id="g2092"
     transform="translate(-324.5,-90.505247)">
    <path
       style="opacity:1"
       fill="#8c383d"
       d="m 441.5,277.5 c 0.999,85.498 1.333,171.165 1,257 -1.174,-1.014 -1.84,-2.347 -2,-4 0.994,-10.487 1.328,-21.154 1,-32 0,-73.667 0,-147.333 0,-221 z"
       id="path2090" />
  </g>
  <g
     id="g2096"
     transform="translate(-324.5,-90.505247)">
    <path
       style="opacity:1"
       fill="#b0363c"
       d="m 441.5,277.5 c 0,73.667 0,147.333 0,221 -5.078,-72.79 -9.078,-145.79 -12,-219 3.976,-0.795 7.976,-1.462 12,-2 z"
       id="path2094" />
  </g>
  <g
     id="g2100"
     transform="translate(-324.5,-90.505247)">
    <path
       style="opacity:1"
       fill="#fd4e57"
       d="m 429.5,279.5 c 2.922,73.21 6.922,146.21 12,219 0.328,10.846 -0.006,21.513 -1,32 -13.543,-56.385 -27.209,-112.718 -41,-169 -0.223,-3.662 -1.223,-6.995 -3,-10 0.106,-2.579 -0.561,-4.912 -2,-7 -2.435,-8.664 -4.935,-17.331 -7.5,-26 -1.421,-9.126 -3.087,-18.126 -5,-27 15.568,-4.667 31.402,-8.667 47.5,-12 z"
       id="path2098" />
  </g>
  <g
     id="g2104"
     transform="translate(-324.5,-90.505247)">
    <path
       style="opacity:1"
       fill="#fefefe"
       d="m 926.5,326.5 c 0.635,7.288 0.468,14.622 -0.5,22 -22.156,109.227 -43.99,218.56 -65.5,328 -1,0 -2,0 -3,0 -48.072,-19.198 -96.072,-38.698 -144,-58.5 -4.508,-1.951 -9.174,-2.618 -14,-2 -1.201,0.903 -2.035,2.069 -2.5,3.5 -0.667,28.667 -0.667,57.333 0,86 0.804,2.646 2.304,4.646 4.5,6 -5.23,1.426 -9.73,0.093 -13.5,-4 -0.667,-32 -0.667,-64 0,-96 32.044,-37.873 63.878,-75.873 95.5,-114 15.152,-18.319 30.485,-36.486 46,-54.5 -17.728,13.539 -35.395,27.372 -53,41.5 -11.451,7.903 -22.785,16.069 -34,24.5 -33.181,25.425 -66.181,51.092 -99,77 -1.229,0.781 -2.562,1.281 -4,1.5 -29.207,-11.346 -58.207,-23.179 -87,-35.5 -5.553,-3.919 -7.553,-9.085 -6,-15.5 0.79,-1.294 1.79,-2.461 3,-3.5 121.83,-69.414 243.496,-139.08 365,-209 3,-0.667 6,-0.667 9,0 1.442,0.377 2.442,1.21 3,2.5 z"
       id="path2102" />
  </g>
  <g
     id="g2108"
     transform="translate(-324.5,-90.505247)">
    <path
       style="opacity:1"
       fill="#dbdbdb"
       d="m 926.5,326.5 c 4.293,1.974 5.96,5.307 5,10 -19.231,110.82 -37.898,221.82 -56,333 -1.261,2.758 -2.094,5.758 -2.5,9 -5.641,2.932 -10.807,2.266 -15.5,-2 1,0 2,0 3,0 21.51,-109.44 43.344,-218.773 65.5,-328 0.968,-7.378 1.135,-14.712 0.5,-22 z"
       id="path2106" />
  </g>
  <g
     id="g2112"
     transform="translate(-324.5,-90.505247)">
    <path
       style="opacity:1"
       fill="#2f2f2f"
       d="m 861.5,683.5 c 10.246,1.088 14.912,-3.579 14,-14 18.102,-111.18 36.769,-222.18 56,-333 2.041,-2.435 4.374,-2.602 7,-0.5 3.052,2.199 5.052,5.032 6,8.5 -19.044,114.227 -38.544,228.227 -58.5,342 -4.025,2.893 -8.525,3.726 -13.5,2.5 -3.996,-1.331 -7.663,-3.165 -11,-5.5 z"
       id="path2110" />
  </g>
  <g
     id="g2116"
     transform="translate(-324.5,-90.505247)">
    <path
       style="opacity:0.997"
       fill="#6b9203"
       d="m 394.5,344.5 c 1.439,2.088 2.106,4.421 2,7 0.223,3.662 1.223,6.995 3,10 13.791,56.282 27.457,112.615 41,169 0.16,1.653 0.826,2.986 2,4 0.167,12.005 0,24.005 -0.5,36 -0.383,-0.556 -0.883,-0.889 -1.5,-1 0,-0.333 0,-0.667 0,-1 1.158,-9.157 1.324,-18.491 0.5,-28 -19.981,-62.884 -39.815,-125.884 -59.5,-189 4.077,-2.727 8.41,-5.061 13,-7 z"
       id="path2114" />
  </g>
  <g
     id="g2120"
     transform="translate(-324.5,-90.505247)">
    <path
       style="opacity:1"
       fill="#95d402"
       d="m 381.5,351.5 c 19.685,63.116 39.519,126.116 59.5,189 0.824,9.509 0.658,18.843 -0.5,28 -24.708,-52.418 -49.708,-104.752 -75,-157 -0.457,-0.798 -1.124,-1.131 -2,-1 -6.055,-13.684 -12.389,-27.184 -19,-40.5 0.259,-1.261 0.926,-2.261 2,-3 11.461,-5.653 23.127,-10.819 35,-15.5 z"
       id="path2118" />
  </g>
  <g
     id="g2124"
     transform="translate(-324.5,-90.505247)">
    <path
       style="opacity:1"
       fill="#a77626"
       d="m 396.5,351.5 c 1.777,3.005 2.777,6.338 3,10 -1.777,-3.005 -2.777,-6.338 -3,-10 z"
       id="path2122" />
  </g>
  <g
     id="g2128"
     transform="translate(-324.5,-90.505247)">
    <path
       style="opacity:0.995"
       fill="#1f1f1f"
       d="m 1611.5,598.5 c 0.81,6.266 2.14,12.432 4,18.5 -0.17,0.833 -0.33,1.667 -0.5,2.5 -2.17,0.988 -4,2.321 -5.5,4 -1.33,0.333 -2.67,0.667 -4,1 -16.73,5.609 -33.73,6.443 -51,2.5 -4.55,-15.028 -8.72,-30.195 -12.5,-45.5 -20.57,1.648 -41.24,3.982 -62,7 -0.83,0.333 -1.67,0.667 -2.5,1 -1.54,3.95 -2.87,7.95 -4,12 -3.5,11.681 -7.5,23.181 -12,34.5 -1.29,0.49 -2.63,0.657 -4,0.5 -11.05,0.379 -22.05,-0.121 -33,-1.5 -8.19,-1.581 -14.85,-5.415 -20,-11.5 28.96,-80.92 57.63,-161.92 86,-243 1.34,-4.204 3.34,-8.037 6,-11.5 16.8,-9.722 33.63,-9.889 50.5,-0.5 21.24,76.866 42.74,153.533 64.5,230 z m -102,-120 c 3.87,17.867 7.54,35.867 11,54 -9.94,1.659 -19.94,2.826 -30,3.5 6.43,-19.233 12.76,-38.4 19,-57.5 z"
       id="path2126" />
  </g>
  <g
     id="g2132"
     transform="translate(-324.5,-90.505247)">
    <path
       style="opacity:0.994"
       fill="#1f1f1f"
       d="m 2665.5,442.5 c -1.31,0.976 -2.65,1.976 -4,3 -23,-12.675 -47.33,-16.841 -73,-12.5 -12.74,5.573 -22.4,14.406 -29,26.5 -17.06,29.737 -18.23,60.07 -3.5,91 7.08,13.626 18.25,21.459 33.5,23.5 10.38,0.274 20.71,-0.392 31,-2 12.87,-2.174 25.54,-4.84 38,-8 9.12,16.597 10.29,33.764 3.5,51.5 -1.94,1.721 -4.11,3.054 -6.5,4 -15.81,6.659 -32.14,11.825 -49,15.5 -30.11,3.295 -57.11,-4.371 -81,-23 -19.28,-18.725 -30.44,-41.559 -33.5,-68.5 -3.85,-35.469 -0.19,-70.135 11,-104 2.98,-7.957 6.48,-15.624 10.5,-23 10.56,-20.371 26.89,-34.205 49,-41.5 9.4,-3.434 19.07,-5.767 29,-7 15.69,-0.717 31.35,-0.383 47,1 16.94,2.215 30.11,10.382 39.5,24.5 4.72,18.784 0.55,35.117 -12.5,49 z"
       id="path2130" />
  </g>
  <g
     id="g2136"
     transform="translate(-324.5,-90.505247)">
    <path
       style="opacity:0.995"
       fill="#1f1f1f"
       d="m 1427.5,512.5 c -11.97,12.101 -26.31,20.268 -43,24.5 -26.75,6.941 -53.75,12.441 -81,16.5 -0.66,3.966 -1,7.966 -1,12 -1.74,21.071 -4.07,42.071 -7,63 -2.23,1.077 -4.56,1.744 -7,2 -17.15,5.622 -33.15,3.455 -48,-6.5 -1.3,-0.804 -1.97,-1.971 -2,-3.5 7.48,-75.955 14.48,-151.955 21,-228 0.6,-2.627 1.1,-5.293 1.5,-8 5.83,-3.833 11.67,-7.667 17.5,-11.5 36.9,-4.119 73.9,-5.452 111,-4 17.87,0.505 33.37,6.672 46.5,18.5 5.57,7.471 9.23,15.804 11,25 3.08,24.147 1.75,48.147 -4,72 -2.87,10.75 -8.04,20.083 -15.5,28 z m -47,-28 c -18.62,9.36 -38.46,13.693 -59.5,13 -4.17,-0.333 -8.33,-0.667 -12.5,-1 2.48,-19.97 4.81,-39.97 7,-60 13.99,-0.958 27.99,-1.125 42,-0.5 8.18,0.5 15.35,3.333 21.5,8.5 4.27,8.85 5.61,18.183 4,28 -0.84,4.014 -1.67,8.014 -2.5,12 z"
       id="path2134" />
  </g>
  <g
     id="g2140"
     transform="translate(-324.5,-90.505247)">
    <path
       style="opacity:0.995"
       fill="#1f1f1f"
       d="m 2360.5,514.5 c 0.21,1.422 0.71,2.755 1.5,4 21.51,-44.355 43.01,-88.689 64.5,-133 1.85,-3.553 3.52,-7.22 5,-11 1.72,-1.434 3.72,-2.267 6,-2.5 14.67,-2.841 29.33,-2.674 44,0.5 -5.13,86.351 -10.46,172.684 -16,259 -2.67,0 -5.33,0 -8,0 -15.82,-0.996 -31.82,-1.33 -48,-1 0,-3 0,-6 0,-9 1.78,-37.02 3.61,-74.02 5.5,-111 -3.47,7.917 -6.64,15.917 -9.5,24 -14.06,31.126 -27.89,62.459 -41.5,94 -1.33,1.082 -2.83,1.749 -4.5,2 -7.75,2.215 -14.25,0.215 -19.5,-6 -9.49,-37.629 -18.82,-75.296 -28,-113 -2.05,12.818 -3.22,25.818 -3.5,39 -1.95,27.005 -3.95,54.005 -6,81 -2.67,0 -5.33,0 -8,0 -16,0 -32,0 -48,0 4.67,-82.709 10,-165.376 16,-248 -0.29,-3.606 0.04,-7.106 1,-10.5 19.68,-6.175 39.18,-5.675 58.5,1.5 12.94,46.656 25.78,93.323 38.5,140 z"
       id="path2138" />
  </g>
  <g
     id="g2144"
     transform="translate(-324.5,-90.505247)">
    <path
       style="opacity:0.995"
       fill="#1f1f1f"
       d="m 1806.5,513.5 c -11.97,12.101 -26.31,20.268 -43,24.5 -26.75,6.941 -53.75,12.441 -81,16.5 -0.66,3.966 -1,7.966 -1,12 -1.74,21.071 -4.07,42.071 -7,63 -2.23,1.077 -4.56,1.744 -7,2 -17.15,5.622 -33.15,3.455 -48,-6.5 -1.3,-0.804 -1.97,-1.971 -2,-3.5 7.48,-75.955 14.48,-151.955 21,-228 0.6,-2.627 1.1,-5.293 1.5,-8 5.83,-3.833 11.67,-7.667 17.5,-11.5 36.9,-4.119 73.9,-5.452 111,-4 17.87,0.505 33.37,6.672 46.5,18.5 5.57,7.471 9.23,15.804 11,25 3.08,24.147 1.75,48.147 -4,72 -2.87,10.75 -8.04,20.083 -15.5,28 z m -47,-28 c -18.62,9.36 -38.46,13.693 -59.5,13 -4.17,-0.333 -8.33,-0.667 -12.5,-1 2.48,-19.97 4.81,-39.97 7,-60 13.99,-0.958 27.99,-1.125 42,-0.5 8.18,0.5 15.35,3.333 21.5,8.5 4.27,8.85 5.61,18.183 4,28 -0.84,4.014 -1.67,8.014 -2.5,12 z"
       id="path2142" />
  </g>
  <g
     id="g2148"
     transform="translate(-324.5,-90.505247)">
    <path
       style="opacity:0.995"
       fill="#1f1f1f"
       d="m 2219.5,507.5 c -13.11,12.061 -28.45,20.227 -46,24.5 -0.95,0.718 -1.12,1.551 -0.5,2.5 1.98,2.399 4.15,4.399 6.5,6 17.57,23.453 35.41,46.787 53.5,70 -1.62,5.89 -4.79,10.89 -9.5,15 -11.15,9.873 -24.15,13.373 -39,10.5 -2.67,-0.667 -5.33,-1.333 -8,-2 -20.54,-28.905 -40.7,-58.072 -60.5,-87.5 -7.14,-0.707 -14.3,-0.374 -21.5,1 -0.39,4.207 -0.39,8.207 0,12 -2.56,23.301 -5.06,46.635 -7.5,70 -2.47,1.101 -4.97,2.101 -7.5,3 -9.58,1.811 -19.25,2.311 -29,1.5 -7.24,-1.704 -13.74,-4.871 -19.5,-9.5 -0.67,-5.333 -0.67,-10.667 0,-16 6.94,-71.299 13.44,-142.632 19.5,-214 0.34,-3.062 1.01,-6.062 2,-9 5.2,-3.697 10.53,-7.197 16,-10.5 38.87,-5.151 77.87,-6.484 117,-4 38.65,4.502 56.98,26.335 55,65.5 -0.6,14.493 -2.44,28.826 -5.5,43 -2.87,10.75 -8.04,20.083 -15.5,28 z m -47,-28 c -13.98,7.412 -28.98,11.245 -45,11.5 -8.99,0.5 -17.99,0.666 -27,0.5 1.71,-17.717 3.71,-35.383 6,-53 17.03,-2.724 34.03,-2.557 51,0.5 9.5,1.5 15,7 16.5,16.5 0.94,8.122 0.44,16.122 -1.5,24 z"
       id="path2146" />
  </g>
  <g
     id="g2152"
     transform="translate(-324.5,-90.505247)">
    <path
       style="opacity:0.995"
       fill="#1f1f1f"
       d="m 2012.5,423.5 c -36.33,0 -72.67,0 -109,0 0,4.333 0,8.667 0,13 -1.24,10.605 -1.91,21.272 -2,32 31.01,-0.333 62.01,0 93,1 7.08,15.93 6.58,31.597 -1.5,47 -1.36,0.88 -2.86,1.214 -4.5,1 -30.67,0 -61.33,0 -92,0 0.03,4.369 -0.3,8.702 -1,13 -0.64,13.363 -1.64,26.697 -3,40 38.67,-0.167 77.33,0 116,0.5 9.52,19.982 8.52,39.482 -3,58.5 -0.82,0.886 -1.82,1.219 -3,1 -54.33,0.167 -108.67,0 -163,-0.5 -1.58,-0.707 -3.08,-1.54 -4.5,-2.5 -1.61,-8.564 -1.94,-17.23 -1,-26 4.6,-72.045 9.43,-144.045 14.5,-216 -0.01,-5.138 1.99,-9.305 6,-12.5 55.34,-0.833 110.67,-0.667 166,0.5 4.65,16.627 3.81,32.96 -2.5,49 -1.7,0.906 -3.53,1.239 -5.5,1 z"
       id="path2150" />
  </g>
  <g
     id="g2156"
     transform="translate(-324.5,-90.505247)">
    <path
       style="opacity:0.991"
       fill="#f6e245"
       d="m 1032.5,375.5 c 42.1,40.495 84.44,80.829 127,121 1.13,1.574 1.3,3.241 0.5,5 -8.77,8.676 -17.27,17.343 -25.5,26 -34.33,-42 -68.67,-84 -103,-126 -0.33,-8.849 0.01,-17.516 1,-26 z"
       id="path2154" />
  </g>
  <g
     id="g2160"
     transform="translate(-324.5,-90.505247)">
    <path
       style="opacity:0.826"
       fill="#fcfcfc"
       d="m 1490.5,380.5 c -28.37,81.08 -57.04,162.08 -86,243 5.15,6.085 11.81,9.919 20,11.5 10.95,1.379 21.95,1.879 33,1.5 -1.37,4.274 -3.04,8.441 -5,12.5 -17.63,3.041 -34.63,1.041 -51,-6 -2.69,-1.698 -5.02,-3.698 -7,-6 30.36,-84.091 60.53,-168.257 90.5,-252.5 1.77,-1.465 3.61,-2.798 5.5,-4 z"
       id="path2158" />
  </g>
  <g
     id="g2164"
     transform="translate(-324.5,-90.505247)">
    <path
       style="opacity:0.866"
       fill="#fefefe"
       d="m 2262.5,383.5 c -6,82.624 -11.33,165.291 -16,248 16,0 32,0 48,0 -0.43,4.324 -0.76,8.658 -1,13 -19,0 -38,0 -57,0 5.81,-85.662 11.64,-171.329 17.5,-257 2.37,-2.186 5.21,-3.519 8.5,-4 z"
       id="path2162" />
  </g>
  <g
     id="g2168"
     transform="translate(-324.5,-90.505247)">
    <path
       style="opacity:0.877"
       fill="#fefefe"
       d="m 1848.5,385.5 c -5.07,71.955 -9.9,143.955 -14.5,216 -0.94,8.77 -0.61,17.436 1,26 1.42,0.96 2.92,1.793 4.5,2.5 54.33,0.5 108.67,0.667 163,0.5 -1.46,4.252 -3.46,8.252 -6,12 -55.66,1.167 -111.33,1.333 -167,0.5 -4.3,-1.935 -6.3,-5.268 -6,-10 5.3,-77.823 10.47,-155.656 15.5,-233.5 0.35,-4.056 1.68,-7.723 4,-11 1.26,-2.107 3.1,-3.107 5.5,-3 z"
       id="path2166" />
  </g>
  <g
     id="g2172"
     transform="translate(-324.5,-90.505247)">
    <path
       style="opacity:0.734"
       fill="#f7f7f7"
       d="m 2426.5,385.5 c -21.49,44.311 -42.99,88.645 -64.5,133 -0.79,-1.245 -1.29,-2.578 -1.5,-4 20.79,-42.242 41.62,-84.575 62.5,-127 0.82,-1.323 1.98,-1.989 3.5,-2 z"
       id="path2170" />
  </g>
  <g
     id="g2176"
     transform="translate(-324.5,-90.505247)">
    <path
       style="opacity:0.857"
       fill="#fefefe"
       d="m 1259.5,392.5 c -6.52,76.045 -13.52,152.045 -21,228 0.03,1.529 0.7,2.696 2,3.5 14.85,9.955 30.85,12.122 48,6.5 -0.42,3.7 -1.09,7.367 -2,11 -18.13,7.429 -35.8,6.595 -53,-2.5 -2.18,-1.247 -3.52,-3.08 -4,-5.5 7.35,-78.683 14.85,-157.35 22.5,-236 2.44,-1.801 4.94,-3.468 7.5,-5 z"
       id="path2174" />
  </g>
  <g
     id="g2180"
     transform="translate(-324.5,-90.505247)">
    <path
       style="opacity:0.859"
       fill="#fefefe"
       d="m 1638.5,393.5 c -6.52,76.045 -13.52,152.045 -21,228 0.03,1.529 0.7,2.696 2,3.5 14.85,9.955 30.85,12.122 48,6.5 -0.15,4.163 -1.15,7.996 -3,11.5 -13.81,4.989 -27.81,5.655 -42,2 -4.66,-1.995 -8.99,-4.495 -13,-7.5 -0.52,-4.604 -0.52,-9.271 0,-14 1.5,-1.679 3.33,-3.012 5.5,-4 0.17,-0.833 0.33,-1.667 0.5,-2.5 -1.86,-6.068 -3.19,-12.234 -4,-18.5 6.52,-66.518 13.02,-133.185 19.5,-200 2.44,-1.801 4.94,-3.468 7.5,-5 z"
       id="path2178" />
  </g>
  <g
     id="g2184"
     transform="translate(-324.5,-90.505247)">
    <path
       style="opacity:0.859"
       fill="#fefefe"
       d="m 2050.5,394.5 c -6.06,71.368 -12.56,142.701 -19.5,214 -0.67,5.333 -0.67,10.667 0,16 5.76,4.629 12.26,7.796 19.5,9.5 9.75,0.811 19.42,0.311 29,-1.5 -0.55,3.545 -1.21,7.045 -2,10.5 -14.48,5.083 -29.15,5.749 -44,2 -3.83,-1.746 -7.49,-3.746 -11,-6 -1.44,-1.126 -2.11,-2.626 -2,-4.5 7.19,-78.74 14.85,-157.407 23,-236 2.23,-1.61 4.56,-2.943 7,-4 z"
       id="path2182" />
  </g>
  <g
     id="g2188"
     transform="translate(-324.5,-90.505247)">
    <path
       style="opacity:1"
       fill="#a39730"
       d="m 1031.5,401.5 c 34.33,42 68.67,84 103,126 -3.69,4.026 -7.36,8.026 -11,12 -2.91,-1.739 -5.41,-4.072 -7.5,-7 -27.64,-40.125 -55.81,-79.792 -84.5,-119 0,-4 0,-8 0,-12 z"
       id="path2186" />
  </g>
  <g
     id="g2192"
     transform="translate(-324.5,-90.505247)">
    <path
       style="opacity:1"
       fill="#2d5f8f"
       d="m 363.5,410.5 c 0.876,-0.131 1.543,0.202 2,1 25.292,52.248 50.292,104.582 75,157 0,0.333 0,0.667 0,1 -0.039,1.256 0.461,2.256 1.5,3 0.5,8.994 0.666,17.994 0.5,27 -1.406,-0.473 -2.073,-1.473 -2,-3 0.664,-2.646 0.998,-5.479 1,-8.5 0.084,-3.62 -0.416,-7.12 -1.5,-10.5 -29.368,-51.725 -58.368,-103.725 -87,-156 -0.671,-0.752 -1.504,-1.086 -2.5,-1 4.114,-3.564 8.448,-6.897 13,-10 z"
       id="path2190" />
  </g>
  <g
     id="g2196"
     transform="translate(-324.5,-90.505247)">
    <path
       style="opacity:0.996"
       fill="#428dda"
       d="m 1031.5,413.5 c 28.69,39.208 56.86,78.875 84.5,119 2.09,2.928 4.59,5.261 7.5,7 6.84,11.682 14.68,22.682 23.5,33 1.18,2.37 2.35,4.703 3.5,7 -0.03,1.529 -0.7,2.696 -2,3.5 -6.87,4.262 -13.53,8.762 -20,13.5 -1.52,-0.011 -2.68,-0.677 -3.5,-2 -30.45,-55.914 -61.62,-111.247 -93.5,-166 0,-5 0,-10 0,-15 z"
       id="path2194" />
  </g>
  <g
     id="g2200"
     transform="translate(-324.5,-90.505247)">
    <path
       style="opacity:0.865"
       fill="#fdfdfd"
       d="m 2513.5,416.5 c -4.02,7.376 -7.52,15.043 -10.5,23 -11.19,33.865 -14.85,68.531 -11,104 3.06,26.941 14.22,49.775 33.5,68.5 23.89,18.629 50.89,26.295 81,23 16.86,-3.675 33.19,-8.841 49,-15.5 -0.52,3.068 -1.36,6.068 -2.5,9 -21.94,12.144 -45.44,19.144 -70.5,21 -52.75,-2.935 -85.25,-29.935 -97.5,-81 -6.37,-37.533 -4.04,-74.533 7,-111 4.59,-15.181 11.75,-28.848 21.5,-41 z"
       id="path2198" />
  </g>
  <g
     id="g2204"
     transform="translate(-324.5,-90.505247)">
    <path
       style="opacity:0.996"
       fill="#408ddb"
       d="m 350.5,420.5 c 0.996,-0.086 1.829,0.248 2.5,1 28.632,52.275 57.632,104.275 87,156 1.084,3.38 1.584,6.88 1.5,10.5 -0.002,3.021 -0.336,5.854 -1,8.5 -26.636,-36.582 -52.803,-73.582 -78.5,-111 -1.129,-1.641 -2.629,-2.641 -4.5,-3 -10.529,-14.696 -20.862,-29.529 -31,-44.5 0.259,-1.261 0.926,-2.261 2,-3 7.504,-4.689 14.838,-9.522 22,-14.5 z"
       id="path2202" />
  </g>
  <g
     id="g2208"
     transform="translate(-324.5,-90.505247)">
    <path
       style="opacity:0.869"
       fill="#fcfcfc"
       d="m 1380.5,484.5 c 0.83,-3.986 1.66,-7.986 2.5,-12 1.61,-9.817 0.27,-19.15 -4,-28 -6.15,-5.167 -13.32,-8 -21.5,-8.5 -14.01,-0.625 -28.01,-0.458 -42,0.5 -0.16,-2.687 0,-5.354 0.5,-8 0.2,-1.902 1.03,-3.402 2.5,-4.5 16.31,-1.425 32.64,-1.759 49,-1 19.71,1.212 28.21,11.712 25.5,31.5 -0.9,7.184 -2.57,14.184 -5,21 -1.61,3.775 -4.11,6.775 -7.5,9 z"
       id="path2206" />
  </g>
  <g
     id="g2212"
     transform="translate(-324.5,-90.505247)">
    <path
       style="opacity:0.869"
       fill="#fcfcfc"
       d="m 1759.5,485.5 c 0.83,-3.986 1.66,-7.986 2.5,-12 1.61,-9.817 0.27,-19.15 -4,-28 -6.15,-5.167 -13.32,-8 -21.5,-8.5 -14.01,-0.625 -28.01,-0.458 -42,0.5 -0.16,-2.687 0,-5.354 0.5,-8 0.2,-1.902 1.03,-3.402 2.5,-4.5 16.31,-1.425 32.64,-1.759 49,-1 19.71,1.212 28.21,11.712 25.5,31.5 -0.9,7.184 -2.57,14.184 -5,21 -1.61,3.775 -4.11,6.775 -7.5,9 z"
       id="path2210" />
  </g>
  <g
     id="g2216"
     transform="translate(-324.5,-90.505247)">
    <path
       style="opacity:0.875"
       fill="#fefefe"
       d="m 2012.5,423.5 c -0.33,4.316 -1.66,8.316 -4,12 -34.99,1 -69.99,1.333 -105,1 0,-4.333 0,-8.667 0,-13 36.33,0 72.67,0 109,0 z"
       id="path2214" />
  </g>
  <g
     id="g2220"
     transform="translate(-324.5,-90.505247)">
    <path
       style="opacity:0.873"
       fill="#fbfbfb"
       d="m 2172.5,479.5 c 1.94,-7.878 2.44,-15.878 1.5,-24 -1.5,-9.5 -7,-15 -16.5,-16.5 -16.97,-3.057 -33.97,-3.224 -51,-0.5 -0.17,-4.014 0,-8.014 0.5,-12 2.07,-0.764 4.24,-1.264 6.5,-1.5 14.64,-1.416 29.31,-1.749 44,-1 17.25,0.252 26.25,8.919 27,26 -0.25,9.516 -2.75,18.35 -7.5,26.5 -1.13,1.641 -2.63,2.641 -4.5,3 z"
       id="path2218" />
  </g>
  <g
     id="g2224"
     transform="translate(-324.5,-90.505247)">
    <path
       style="opacity:0.86"
       fill="#fdfdfd"
       d="m 2665.5,442.5 c -2.68,6.673 -6.85,12.34 -12.5,17 -23.38,-13.747 -48.21,-17.914 -74.5,-12.5 -7.05,3.183 -13.38,7.35 -19,12.5 6.6,-12.094 16.26,-20.927 29,-26.5 25.67,-4.341 50,-0.175 73,12.5 1.35,-1.024 2.69,-2.024 4,-3 z"
       id="path2222" />
  </g>
  <g
     id="g2228"
     transform="translate(-324.5,-90.505247)">
    <path
       style="opacity:0.999"
       fill="#2b5e91"
       d="m 1031.5,428.5 c 31.88,54.753 63.05,110.086 93.5,166 0.82,1.323 1.98,1.989 3.5,2 -4.52,4.061 -9.52,7.395 -15,10 -1.25,-0.077 -2.08,-0.744 -2.5,-2 -26.06,-55.003 -52.23,-110.003 -78.5,-165 -0.92,-3.564 -1.26,-7.231 -1,-11 z"
       id="path2226" />
  </g>
  <g
     id="g2232"
     transform="translate(-324.5,-90.505247)">
    <path
       style="opacity:0.999"
       fill="#94d405"
       d="m 1032.5,439.5 c 26.27,54.997 52.44,109.997 78.5,165 0.42,1.256 1.25,1.923 2.5,2 6.22,13.811 12.56,27.645 19,41.5 -0.26,1.261 -0.93,2.261 -2,3 -3.51,1.372 -6.84,3.038 -10,5 -6.74,2.206 -13.08,5.206 -19,9 -1.63,0.494 -3.3,0.66 -5,0.5 -21.21,-69.168 -42.87,-138.168 -65,-207 -0.32,-6.522 0.01,-12.855 1,-19 z"
       id="path2230" />
  </g>
  <g
     id="g2236"
     transform="translate(-324.5,-90.505247)">
    <path
       style="opacity:1"
       fill="#2f2f2f"
       d="m 783.5,497.5 c -42.431,31.073 -84.431,62.906 -126,95.5 -4.774,2.28 -8.774,1.446 -12,-2.5 43.667,-35.333 87.333,-70.667 131,-106 17.605,-14.128 35.272,-27.961 53,-41.5 -15.515,18.014 -30.848,36.181 -46,54.5 z"
       id="path2234" />
  </g>
  <g
     id="g2240"
     transform="translate(-324.5,-90.505247)">
    <path
       style="opacity:0.872"
       fill="#fcfcfc"
       d="m 1520.5,532.5 c -3.46,-18.133 -7.13,-36.133 -11,-54 1.58,-8.589 4.08,-16.922 7.5,-25 4.83,25.329 9.67,50.663 14.5,76 -0.32,1.147 -0.98,1.981 -2,2.5 -2.98,0.498 -5.98,0.665 -9,0.5 z"
       id="path2238" />
  </g>
  <g
     id="g2244"
     transform="translate(-324.5,-90.505247)">
    <path
       style="opacity:0.998"
       fill="#6a9301"
       d="m 1031.5,458.5 c 22.13,68.832 43.79,137.832 65,207 -4.17,2.812 -8.51,5.479 -13,8 -4.15,-13.626 -7.82,-27.292 -11,-41 0.09,-2.652 -0.58,-4.985 -2,-7 -12.4,-52.932 -25.4,-105.599 -39,-158 0,-3 0,-6 0,-9 z"
       id="path2242" />
  </g>
  <g
     id="g2248"
     transform="translate(-324.5,-90.505247)">
    <path
       style="opacity:1"
       fill="#fc4f56"
       d="m 1031.5,467.5 c 13.6,52.401 26.6,105.068 39,158 -0.09,2.652 0.58,4.985 2,7 3.18,13.708 6.85,27.374 11,41 4.25,17.179 8.59,34.346 13,51.5 -1.22,1.74 -2.88,2.74 -5,3 -15.89,4.14 -31.89,7.973 -48,11.5 -3.07,-75.534 -7.07,-150.867 -12,-226 0,-15.333 0,-30.667 0,-46 z"
       id="path2246" />
  </g>
  <g
     id="g2252"
     transform="translate(-324.5,-90.505247)">
    <path
       style="opacity:1"
       fill="#a19632"
       d="m 357.5,482.5 c 1.871,0.359 3.371,1.359 4.5,3 25.697,37.418 51.864,74.418 78.5,111 -0.073,1.527 0.594,2.527 2,3 0.327,9.848 -0.006,19.514 -1,29 0.166,-6.675 0,-13.342 -0.5,-20 -31.001,-38.497 -62.167,-76.831 -93.5,-115 2.623,-4.291 5.956,-7.957 10,-11 z"
       id="path2250" />
  </g>
  <g
     id="g2256"
     transform="translate(-324.5,-90.505247)">
    <path
       style="opacity:0.991"
       fill="#f5e245"
       d="m 347.5,493.5 c 31.333,38.169 62.499,76.503 93.5,115 0.5,6.658 0.666,13.325 0.5,20 0,0.333 0,0.667 0,1 -27.21,-25.379 -54.21,-50.879 -81,-76.5 -1.537,-1.11 -2.203,-2.61 -2,-4.5 -1.052,0.149 -2.052,-0.017 -3,-0.5 -10.234,-10.402 -20.568,-20.569 -31,-30.5 5.695,-7.373 11.862,-14.373 18.5,-21 1.615,-0.886 3.115,-1.886 4.5,-3 z"
       id="path2254" />
  </g>
  <g
     id="g2260"
     transform="translate(-324.5,-90.505247)">
    <path
       style="opacity:0.829"
       fill="#fafafa"
       d="m 2219.5,507.5 c -9.03,16.018 -22.37,27.018 -40,33 -2.35,-1.601 -4.52,-3.601 -6.5,-6 -0.62,-0.949 -0.45,-1.782 0.5,-2.5 17.55,-4.273 32.89,-12.439 46,-24.5 z"
       id="path2258" />
  </g>
  <g
     id="g2264"
     transform="translate(-324.5,-90.505247)">
    <path
       style="opacity:0.866"
       fill="#fefefe"
       d="m 2409.5,621.5 c -0.98,3.125 -1.31,6.458 -1,10 16.33,0 32.67,0 49,0 -0.09,4.357 -0.42,8.69 -1,13 -19,0 -38,0 -57,0 2.04,-36.664 4.04,-73.331 6,-110 2.86,-8.083 6.03,-16.083 9.5,-24 -1.89,36.98 -3.72,73.98 -5.5,111 z"
       id="path2262" />
  </g>
  <g
     id="g2268"
     transform="translate(-324.5,-90.505247)">
    <path
       style="opacity:0.868"
       fill="#fbfbfb"
       d="m 2359.5,630.5 c -1.38,3.76 -3.04,7.426 -5,11 -8.54,4.696 -16.37,3.696 -23.5,-3 -7.53,-29.439 -15.03,-58.772 -22.5,-88 0.28,-13.182 1.45,-26.182 3.5,-39 9.18,37.704 18.51,75.371 28,113 5.25,6.215 11.75,8.215 19.5,6 z"
       id="path2266" />
  </g>
  <g
     id="g2272"
     transform="translate(-324.5,-90.505247)">
    <path
       style="opacity:0.854"
       fill="#fbfbfb"
       d="m 1427.5,512.5 c -7.6,14.429 -18.93,24.929 -34,31.5 -9.03,3.924 -18.36,6.924 -28,9 -16,3.667 -32,7.333 -48,11 -4.95,1.05 -9.95,1.55 -15,1.5 0,-4.034 0.34,-8.034 1,-12 27.25,-4.059 54.25,-9.559 81,-16.5 16.69,-4.232 31.03,-12.399 43,-24.5 z"
       id="path2270" />
  </g>
  <g
     id="g2276"
     transform="translate(-324.5,-90.505247)">
    <path
       style="opacity:0.854"
       fill="#fbfbfb"
       d="m 1806.5,513.5 c -7.6,14.429 -18.93,24.929 -34,31.5 -9.03,3.924 -18.36,6.924 -28,9 -16,3.667 -32,7.333 -48,11 -4.95,1.05 -9.95,1.55 -15,1.5 0,-4.034 0.34,-8.034 1,-12 27.25,-4.059 54.25,-9.559 81,-16.5 16.69,-4.232 31.03,-12.399 43,-24.5 z"
       id="path2274" />
  </g>
  <g
     id="g2280"
     transform="translate(-324.5,-90.505247)">
    <path
       style="opacity:0.892"
       fill="#fefefe"
       d="m 1988.5,517.5 c -0.69,4.544 -2.35,8.711 -5,12.5 -29.33,0.5 -58.66,0.667 -88,0.5 0.7,-4.298 1.03,-8.631 1,-13 30.67,0 61.33,0 92,0 z"
       id="path2278" />
  </g>
  <g
     id="g2284"
     transform="translate(-324.5,-90.505247)">
    <path
       style="opacity:1"
       fill="#a7a7a7"
       d="m 776.5,484.5 c -43.667,35.333 -87.333,70.667 -131,106 -2.767,2.418 -5.767,2.584 -9,0.5 -29.28,-13.081 -58.947,-25.414 -89,-37 -4.581,-3.438 -6.081,-7.938 -4.5,-13.5 0.66,-1.824 1.827,-3.157 3.5,-4 -1.553,6.415 0.447,11.581 6,15.5 28.793,12.321 57.793,24.154 87,35.5 1.438,-0.219 2.771,-0.719 4,-1.5 32.819,-25.908 65.819,-51.575 99,-77 11.215,-8.431 22.549,-16.597 34,-24.5 z"
       id="path2282" />
  </g>
  <g
     id="g2288"
     transform="translate(-324.5,-90.505247)">
    <path
       style="opacity:1"
       fill="#af363c"
       d="m 1031.5,513.5 c 4.93,75.133 8.93,150.466 12,226 -3.87,0.372 -7.54,1.372 -11,3 -1,-76.262 -1.33,-152.596 -1,-229 z"
       id="path2286" />
  </g>
  <g
     id="g2292"
     transform="translate(-324.5,-90.505247)">
    <path
       style="opacity:0.865"
       fill="#fcfcfc"
       d="m 2223.5,625.5 c -7.21,16.013 -19.71,24.346 -37.5,25 -6.62,-0.517 -13.12,-1.684 -19.5,-3.5 -20.12,-29.938 -40.78,-59.438 -62,-88.5 -3.26,0.917 -6.59,1.251 -10,1 -0.39,-3.793 -0.39,-7.793 0,-12 7.2,-1.374 14.36,-1.707 21.5,-1 19.8,29.428 39.96,58.595 60.5,87.5 2.67,0.667 5.33,1.333 8,2 14.85,2.873 27.85,-0.627 39,-10.5 z"
       id="path2290" />
  </g>
  <g
     id="g2296"
     transform="translate(-324.5,-90.505247)">
    <path
       style="opacity:0.87"
       fill="#fcfcfc"
       d="m 1605.5,624.5 c 1.04,2.614 1.54,5.28 1.5,8 -12.25,7.562 -25.58,10.896 -40,10 -7.59,0.109 -15.09,-0.558 -22.5,-2 -3.84,-15.03 -7.84,-30.03 -12,-45 -1.17,-0.333 -2.33,-0.667 -3.5,-1 -18.5,2.376 -37,4.709 -55.5,7 1.13,-4.05 2.46,-8.05 4,-12 0.83,-0.333 1.67,-0.667 2.5,-1 20.76,-3.018 41.43,-5.352 62,-7 3.78,15.305 7.95,30.472 12.5,45.5 17.27,3.943 34.27,3.109 51,-2.5 z"
       id="path2294" />
  </g>
  <g
     id="g2300"
     transform="translate(-324.5,-90.505247)">
    <path
       style="opacity:1"
       fill="#aaaaaa"
       d="m 857.5,676.5 c 4.693,4.266 9.859,4.932 15.5,2 0.406,-3.242 1.239,-6.242 2.5,-9 0.912,10.421 -3.754,15.088 -14,14 -27.12,-10.815 -54.12,-21.815 -81,-33 -2.756,-1.704 -5.756,-3.037 -9,-4 -20.929,-9.76 -42.263,-18.76 -64,-27 -0.333,0.333 -0.667,0.667 -1,1 5.96,10.374 10.46,21.374 13.5,33 1.753,9.039 3.586,18.039 5.5,27 -2.743,3.925 -4.743,8.258 -6,13 -4.943,5.774 -10.443,11.108 -16.5,16 -0.464,0.594 -0.631,1.261 -0.5,2 -0.333,0 -0.667,0 -1,0 -2.196,-1.354 -3.696,-3.354 -4.5,-6 -0.667,-28.667 -0.667,-57.333 0,-86 0.465,-1.431 1.299,-2.597 2.5,-3.5 4.826,-0.618 9.492,0.049 14,2 47.928,19.802 95.928,39.302 144,58.5 z"
       id="path2298" />
  </g>
  <g
     id="g2304"
     transform="translate(-324.5,-90.505247)">
    <path
       style="opacity:1"
       fill="#959595"
       d="m 771.5,646.5 c -2.283,0.108 -4.283,0.941 -6,2.5 -15.453,14.618 -30.786,29.451 -46,44.5 1.257,-4.742 3.257,-9.075 6,-13 -1.914,-8.961 -3.747,-17.961 -5.5,-27 -3.04,-11.626 -7.54,-22.626 -13.5,-33 0.333,-0.333 0.667,-0.667 1,-1 21.737,8.24 43.071,17.24 64,27 z"
       id="path2302" />
  </g>
  <g
     id="g2308"
     transform="translate(-324.5,-90.505247)">
    <path
       style="opacity:0.973"
       fill="#565656"
       d="m 2409.5,621.5 c 0,3 0,6 0,9 16.18,-0.33 32.18,0.004 48,1 -16.33,0 -32.67,0 -49,0 -0.31,-3.542 0.02,-6.875 1,-10 z"
       id="path2306" />
  </g>
  <g
     id="g2312"
     transform="translate(-324.5,-90.505247)">
    <path
       style="opacity:1"
       fill="#bb6d31"
       d="m 1070.5,625.5 c 1.42,2.015 2.09,4.348 2,7 -1.42,-2.015 -2.09,-4.348 -2,-7 z"
       id="path2310" />
  </g>
  <g
     id="g2316"
     transform="translate(-324.5,-90.505247)">
    <path
       style="opacity:1"
       fill="#2e2e2e"
       d="m 771.5,646.5 c 3.244,0.963 6.244,2.296 9,4 -21.437,19.6 -42.771,39.433 -64,59.5 -4.241,4.094 -8.907,4.594 -14,1.5 -0.131,-0.739 0.036,-1.406 0.5,-2 6.057,-4.892 11.557,-10.226 16.5,-16 15.214,-15.049 30.547,-29.882 46,-44.5 1.717,-1.559 3.717,-2.392 6,-2.5 z"
       id="path2314" />
  </g>
  <g
     id="g2320"
     transform="translate(-324.5,-90.505247)">
    <path
       style="opacity:1"
       fill="#4c5930"
       d="m 738.5,812.5 c 16.333,-1.333 32.667,-1.333 49,0 0,0.667 -0.333,1 -1,1 -11.154,-0.995 -22.488,-1.328 -34,-1 -4.667,0 -9.333,0 -14,0 z"
       id="path2318" />
  </g>
  <g
     id="g2324"
     transform="translate(-324.5,-90.505247)">
    <path
       style="opacity:1"
       fill="#b0363c"
       d="m 508.5,812.5 c 76.333,0 152.667,0 229,0 -1.714,1.238 -3.714,1.905 -6,2 -2.646,-0.664 -5.479,-0.998 -8.5,-1 -70.516,3.683 -141.016,7.35 -211.5,11 -0.997,-3.979 -1.997,-7.979 -3,-12 z"
       id="path2322" />
  </g>
  <g
     id="g2328"
     transform="translate(-324.5,-90.505247)">
    <path
       style="opacity:0.997"
       fill="#6b9202"
       d="m 737.5,812.5 c 0.333,0 0.667,0 1,0 4.667,0 9.333,0 14,0 -56.664,18.776 -113.664,36.776 -171,54 -2.191,-3.907 -4.191,-7.907 -6,-12 1.348,-1.98 3.348,-3.147 6,-3.5 50.094,-11.867 100.094,-24.033 150,-36.5 2.286,-0.095 4.286,-0.762 6,-2 z"
       id="path2326" />
  </g>
  <g
     id="g2332"
     transform="translate(-324.5,-90.505247)">
    <path
       style="opacity:0.999"
       fill="#95d401"
       d="m 752.5,812.5 c 11.512,-0.328 22.846,0.005 34,1 -47.449,22.385 -95.116,44.885 -143,67.5 -1.21,1.039 -2.21,2.206 -3,3.5 -13.703,5.809 -27.203,12.142 -40.5,19 -1,-1 -2,-2 -3,-3 -5.448,-11.258 -10.615,-22.591 -15.5,-34 57.336,-17.224 114.336,-35.224 171,-54 z"
       id="path2330" />
  </g>
  <g
     id="g2336"
     transform="translate(-324.5,-90.505247)">
    <path
       style="opacity:0.999"
       fill="#2d5f8e"
       d="m 787.5,812.5 c 4,0 8,0 12,0 -49.438,28.224 -99.104,56.224 -149,84 -2.957,-4.292 -6.29,-8.292 -10,-12 0.79,-1.294 1.79,-2.461 3,-3.5 47.884,-22.615 95.551,-45.115 143,-67.5 0.667,0 1,-0.333 1,-1 z"
       id="path2334" />
  </g>
  <g
     id="g2340"
     transform="translate(-324.5,-90.505247)">
    <path
       style="opacity:0.997"
       fill="#408dda"
       d="m 799.5,812.5 c 6.522,-0.323 12.855,0.01 19,1 -34.304,24.157 -68.638,48.324 -103,72.5 -1.537,1.11 -2.203,2.61 -2,4.5 -15.281,9.952 -30.281,20.285 -45,31 -6.757,-7.872 -12.757,-16.206 -18,-25 49.896,-27.776 99.562,-55.776 149,-84 z"
       id="path2338" />
  </g>
  <g
     id="g2344"
     transform="translate(-324.5,-90.505247)">
    <path
       style="opacity:1"
       fill="#a19632"
       d="m 832.5,812.5 c -35.961,28.989 -71.961,57.989 -108,87 -3.876,-2.763 -7.543,-5.763 -11,-9 -0.203,-1.89 0.463,-3.39 2,-4.5 34.362,-24.176 68.696,-48.343 103,-72.5 4.57,-0.941 9.237,-1.274 14,-1 z"
       id="path2342" />
  </g>
  <g
     id="g2348"
     transform="translate(-324.5,-90.505247)">
    <path
       style="opacity:0.992"
       fill="#f5e245"
       d="m 832.5,812.5 c 9.667,0 19.333,0 29,0 -35.46,38.302 -71.626,76.302 -108.5,114 -10.291,-8.123 -19.791,-17.123 -28.5,-27 36.039,-29.011 72.039,-58.011 108,-87 z"
       id="path2346" />
  </g>
  <g
     id="g2352"
     transform="translate(-324.5,-90.505247)">
    <path
       style="opacity:1"
       fill="#fc4e56"
       d="m 731.5,814.5 c -49.906,12.467 -99.906,24.633 -150,36.5 -2.652,0.353 -4.652,1.52 -6,3.5 -17.221,4.113 -34.555,8.113 -52,12 -1.147,-0.318 -1.981,-0.984 -2.5,-2 -3.078,-13.391 -6.245,-26.724 -9.5,-40 70.484,-3.65 140.984,-7.317 211.5,-11 3.021,0.002 5.854,0.336 8.5,1 z"
       id="path2350" />
  </g>
</svg>
