<?xml version="1.0" encoding="UTF-8" standalone="no"?>
<svg
   version="1.1"
   width="2355.282"
   height="835.99475"
   viewBox="0 0 2355.282 835.99475"
   style="clip-rule:evenodd;fill-rule:evenodd;image-rendering:optimizeQuality;shape-rendering:geometricPrecision;text-rendering:geometricPrecision"
   id="svg2847"
   sodipodi:docname="logo-marker.svg"
   xmlns:inkscape="http://www.inkscape.org/namespaces/inkscape"
   xmlns:sodipodi="http://sodipodi.sourceforge.net/DTD/sodipodi-0.dtd"
   xmlns="http://www.w3.org/2000/svg"
   xmlns:svg="http://www.w3.org/2000/svg">
  <defs
     id="defs2851" />
  <sodipodi:namedview
     id="namedview2849"
     pagecolor="#ffffff"
     bordercolor="#000000"
     borderopacity="0.25"
     inkscape:showpageshadow="2"
     inkscape:pageopacity="0.0"
     inkscape:pagecheckerboard="0"
     inkscape:deskcolor="#d1d1d1"
     showgrid="false" />
  <g
     id="g2537"
     transform="translate(-324.5,-90.505247)">
    <path
       style="opacity:0.991"
       fill="#f6e245"
       d="m 756.5,111.5 c -0.244,2.763 -1.577,4.929 -4,6.5 -42.92,34.279 -85.586,68.779 -128,103.5 -5.333,0 -10.667,0 -16,0 -0.333,0 -0.667,0 -1,0 5.596,-6.77 11.429,-13.436 17.5,-20 35.404,-36.568 70.571,-73.235 105.5,-110 1.574,-1.1309 3.241,-1.2975 5,-0.5 6.922,7.0907 13.922,13.924 21,20.5 z"
       id="path2535" />
  </g>
  <g
     id="g2541"
     transform="translate(-324.5,-90.505247)">
    <path
       style="opacity:0.996"
       fill="#428eda"
       d="m 824.5,117.5 c 0.528,1.347 0.695,2.681 0.5,4 -59.116,33.473 -118.283,66.807 -177.5,100 -4.202,0.317 -8.202,-0.017 -12,-1 43.758,-31.39 87.758,-62.557 132,-93.5 1.323,-0.816 1.989,-1.983 2,-3.5 12.905,-9.37 26.072,-18.37 39.5,-27 1.979,1.895 3.979,3.895 6,6 2.996,5.151 6.162,10.151 9.5,15 z"
       id="path2539" />
  </g>
  <g
     id="g2545"
     transform="translate(-324.5,-90.505247)">
    <path
       style="opacity:1"
       fill="#a39731"
       d="m 756.5,111.5 c 4.333,4 8.667,8 13,12 -0.011,1.517 -0.677,2.684 -2,3.5 -44.242,30.943 -88.242,62.11 -132,93.5 -0.333,0 -0.667,0 -1,0 -3.228,0.914 -6.561,1.247 -10,1 42.414,-34.721 85.08,-69.221 128,-103.5 2.423,-1.571 3.756,-3.737 4,-6.5 z"
       id="path2543" />
  </g>
  <g
     id="g2549"
     transform="translate(-324.5,-90.505247)">
    <path
       style="opacity:1"
       fill="#94d405"
       d="m 895.5,150.5 c -66.835,21.621 -133.835,42.454 -201,62.5 -3.764,0.852 -7.097,2.352 -10,4.5 -4.637,1.425 -9.304,2.758 -14,4 -4.863,0.319 -9.53,-0.014 -14,-1 59.093,-28.377 118.427,-56.544 178,-84.5 1.256,-0.417 1.923,-1.25 2,-2.5 13.598,-6.037 27.098,-12.371 40.5,-19 0.772,0.145 1.439,0.478 2,1 6.058,11.447 11.558,23.113 16.5,35 z"
       id="path2547" />
  </g>
  <g
     id="g2553"
     transform="translate(-324.5,-90.505247)">
    <path
       style="opacity:1"
       fill="#2b5f92"
       d="m 824.5,117.5 c 4,5.333 8,10.667 12,16 -0.077,1.25 -0.744,2.083 -2,2.5 -59.573,27.956 -118.907,56.123 -178,84.5 -0.333,0 -0.667,0 -1,0 -2.554,0.888 -5.221,1.221 -8,1 59.217,-33.193 118.384,-66.527 177.5,-100 0.195,-1.319 0.028,-2.653 -0.5,-4 z"
       id="path2551" />
  </g>
  <g
     id="g2557"
     transform="translate(-324.5,-90.505247)">
    <path
       style="opacity:0.998"
       fill="#6a9401"
       d="m 895.5,150.5 c 1.894,4.615 4.227,8.948 7,13 -0.111,0.617 -0.444,1.117 -1,1.5 -72.263,17.905 -144.596,35.405 -217,52.5 2.903,-2.148 6.236,-3.648 10,-4.5 67.165,-20.046 134.165,-40.879 201,-62.5 z"
       id="path2555" />
  </g>
  <g
     id="g2561"
     transform="translate(-324.5,-90.505247)">
    <path
       style="opacity:1"
       fill="#fd4f57"
       d="m 969.5,209.5 c -77.501,3.595 -154.835,7.595 -232,12 -22.333,0 -44.667,0 -67,0 4.696,-1.242 9.363,-2.575 14,-4 72.404,-17.095 144.737,-34.595 217,-52.5 0.556,-0.383 0.889,-0.883 1,-1.5 17.479,-4.663 35.146,-8.496 53,-11.5 0.829,1.816 1.663,3.649 2.5,5.5 3.858,17.421 7.691,34.754 11.5,52 z"
       id="path2559" />
  </g>
  <g
     id="g2565"
     transform="translate(-324.5,-90.505247)">
    <path
       style="opacity:1"
       fill="#b2363d"
       d="m 969.5,209.5 c 1.781,3.7 2.781,7.7 3,12 -78.333,0 -156.667,0 -235,0 77.165,-4.405 154.499,-8.405 232,-12 z"
       id="path2563" />
  </g>
  <g
     id="g2569"
     transform="translate(-324.5,-90.505247)">
    <path
       style="opacity:0.986"
       fill="#3c3b3b"
       d="m 634.5,220.5 c 0.333,0 0.667,0 1,0 3.798,0.983 7.798,1.317 12,1 2.779,0.221 5.446,-0.112 8,-1 2.071,1.309 4.571,1.975 7.5,2 2.69,-0.003 5.19,-0.336 7.5,-1 22.333,0 44.667,0 67,0 78.333,0 156.667,0 235,0 20,0 40,0 60,0 0,51.333 0,102.667 0,154 -0.99,8.484 -1.33,17.151 -1,26 0,4 0,8 0,12 0,5 0,10 0,15 -0.26,3.769 0.08,7.436 1,11 -0.99,6.145 -1.32,12.478 -1,19 0,3 0,6 0,9 0,15.333 0,30.667 0,46 -0.33,76.404 0,152.738 1,229 0,23.333 0,46.667 0,70 -57,0 -114,0 -171,0 -9.667,0 -19.333,0 -29,0 -4.763,-0.274 -9.43,0.059 -14,1 -6.145,-0.99 -12.478,-1.323 -19,-1 -4,0 -8,0 -12,0 -16.333,-1.333 -32.667,-1.333 -49,0 -0.333,0 -0.667,0 -1,0 -76.333,0 -152.667,0 -229,0 -22.333,0 -44.667,0 -67,0 0,-61 0,-122 0,-183 0,-0.333 0,-0.667 0,-1 0.994,-9.486 1.327,-19.152 1,-29 0.166,-9.006 0,-18.006 -0.5,-27 -1.039,-0.744 -1.539,-1.744 -1.5,-3 0.617,0.111 1.117,0.444 1.5,1 0.5,-11.995 0.667,-23.995 0.5,-36 0.333,-85.835 -10e-4,-171.502 -1,-257 0,-18.667 0,-37.333 0,-56 55.333,0 110.667,0 166,0 0.333,0 0.667,0 1,0 4.153,0.666 8.487,0.999 13,1 4.722,-0.008 9.055,-0.675 13,-2 z"
       id="path2567" />
  </g>
  <g
     id="g2573"
     transform="translate(-324.5,-90.505247)">
    <path
       style="opacity:0.999"
       fill="#716c3e"
       d="m 634.5,220.5 c -3.945,1.325 -8.278,1.992 -13,2 -4.513,-0.001 -8.847,-0.334 -13,-1 5.333,0 10.667,0 16,0 3.439,0.247 6.772,-0.086 10,-1 z"
       id="path2571" />
  </g>
  <g
     id="g2577"
     transform="translate(-324.5,-90.505247)">
    <path
       style="opacity:1"
       fill="#576c2c"
       d="m 655.5,220.5 c 0.333,0 0.667,0 1,0 4.47,0.986 9.137,1.319 14,1 -2.31,0.664 -4.81,0.997 -7.5,1 -2.929,-0.025 -5.429,-0.691 -7.5,-2 z"
       id="path2575" />
  </g>
  <g
     id="g2581"
     transform="translate(-324.5,-90.505247)">
    <path
       style="opacity:1"
       fill="#444444"
       d="m 455.5,237.5 c 187.333,0 374.667,0 562,0 0.17,186.334 0,372.667 -0.5,559 -93.43,0.666 -186.93,0.999 -280.5,1 -93.57,-10e-4 -187.07,-0.334 -280.5,-1 -0.5,-186.333 -0.667,-372.666 -0.5,-559 z"
       id="path2579" />
  </g>
  <g
     id="g2585"
     transform="translate(-324.5,-90.505247)">
    <path
       style="opacity:1"
       fill="#8c383d"
       d="m 441.5,277.5 c 0.999,85.498 1.333,171.165 1,257 -1.174,-1.014 -1.84,-2.347 -2,-4 0.994,-10.487 1.328,-21.154 1,-32 0,-73.667 0,-147.333 0,-221 z"
       id="path2583" />
  </g>
  <g
     id="g2589"
     transform="translate(-324.5,-90.505247)">
    <path
       style="opacity:1"
       fill="#b0363c"
       d="m 441.5,277.5 c 0,73.667 0,147.333 0,221 -5.078,-72.79 -9.078,-145.79 -12,-219 3.976,-0.795 7.976,-1.462 12,-2 z"
       id="path2587" />
  </g>
  <g
     id="g2593"
     transform="translate(-324.5,-90.505247)">
    <path
       style="opacity:1"
       fill="#fd4e57"
       d="m 429.5,279.5 c 2.922,73.21 6.922,146.21 12,219 0.328,10.846 -0.006,21.513 -1,32 -13.543,-56.385 -27.209,-112.718 -41,-169 -0.223,-3.662 -1.223,-6.995 -3,-10 0.106,-2.579 -0.561,-4.912 -2,-7 -2.435,-8.664 -4.935,-17.331 -7.5,-26 -1.421,-9.126 -3.087,-18.126 -5,-27 15.568,-4.667 31.402,-8.667 47.5,-12 z"
       id="path2591" />
  </g>
  <g
     id="g2597"
     transform="translate(-324.5,-90.505247)">
    <path
       style="opacity:1"
       fill="#fefefe"
       d="m 926.5,326.5 c 0.635,7.288 0.468,14.622 -0.5,22 -22.156,109.227 -43.99,218.56 -65.5,328 -1,0 -2,0 -3,0 -48.072,-19.198 -96.072,-38.698 -144,-58.5 -4.508,-1.951 -9.174,-2.618 -14,-2 -1.201,0.903 -2.035,2.069 -2.5,3.5 -0.667,28.667 -0.667,57.333 0,86 0.804,2.646 2.304,4.646 4.5,6 -5.23,1.426 -9.73,0.093 -13.5,-4 -0.667,-32 -0.667,-64 0,-96 32.044,-37.873 63.878,-75.873 95.5,-114 15.152,-18.319 30.485,-36.486 46,-54.5 -17.728,13.539 -35.395,27.372 -53,41.5 -11.451,7.903 -22.785,16.069 -34,24.5 -33.181,25.425 -66.181,51.092 -99,77 -1.229,0.781 -2.562,1.281 -4,1.5 -29.207,-11.346 -58.207,-23.179 -87,-35.5 -5.553,-3.919 -7.553,-9.085 -6,-15.5 0.79,-1.294 1.79,-2.461 3,-3.5 121.83,-69.414 243.496,-139.08 365,-209 3,-0.667 6,-0.667 9,0 1.442,0.377 2.442,1.21 3,2.5 z"
       id="path2595" />
  </g>
  <g
     id="g2601"
     transform="translate(-324.5,-90.505247)">
    <path
       style="opacity:1"
       fill="#dbdbdb"
       d="m 926.5,326.5 c 4.293,1.974 5.96,5.307 5,10 -19.231,110.82 -37.898,221.82 -56,333 -1.261,2.758 -2.094,5.758 -2.5,9 -5.641,2.932 -10.807,2.266 -15.5,-2 1,0 2,0 3,0 21.51,-109.44 43.344,-218.773 65.5,-328 0.968,-7.378 1.135,-14.712 0.5,-22 z"
       id="path2599" />
  </g>
  <g
     id="g2605"
     transform="translate(-324.5,-90.505247)">
    <path
       style="opacity:1"
       fill="#2f2f2f"
       d="m 861.5,683.5 c 10.246,1.088 14.912,-3.579 14,-14 18.102,-111.18 36.769,-222.18 56,-333 2.041,-2.435 4.374,-2.602 7,-0.5 3.052,2.199 5.052,5.032 6,8.5 -19.044,114.227 -38.544,228.227 -58.5,342 -4.025,2.893 -8.525,3.726 -13.5,2.5 -3.996,-1.331 -7.663,-3.165 -11,-5.5 z"
       id="path2603" />
  </g>
  <g
     id="g2609"
     transform="translate(-324.5,-90.505247)">
    <path
       style="opacity:0.997"
       fill="#6b9203"
       d="m 394.5,344.5 c 1.439,2.088 2.106,4.421 2,7 0.223,3.662 1.223,6.995 3,10 13.791,56.282 27.457,112.615 41,169 0.16,1.653 0.826,2.986 2,4 0.167,12.005 0,24.005 -0.5,36 -0.383,-0.556 -0.883,-0.889 -1.5,-1 0,-0.333 0,-0.667 0,-1 1.158,-9.157 1.324,-18.491 0.5,-28 -19.981,-62.884 -39.815,-125.884 -59.5,-189 4.077,-2.727 8.41,-5.061 13,-7 z"
       id="path2607" />
  </g>
  <g
     id="g2613"
     transform="translate(-324.5,-90.505247)">
    <path
       style="opacity:1"
       fill="#95d402"
       d="m 381.5,351.5 c 19.685,63.116 39.519,126.116 59.5,189 0.824,9.509 0.658,18.843 -0.5,28 -24.708,-52.418 -49.708,-104.752 -75,-157 -0.457,-0.798 -1.124,-1.131 -2,-1 -6.055,-13.684 -12.389,-27.184 -19,-40.5 0.259,-1.261 0.926,-2.261 2,-3 11.461,-5.653 23.127,-10.819 35,-15.5 z"
       id="path2611" />
  </g>
  <g
     id="g2617"
     transform="translate(-324.5,-90.505247)">
    <path
       style="opacity:1"
       fill="#a77626"
       d="m 396.5,351.5 c 1.777,3.005 2.777,6.338 3,10 -1.777,-3.005 -2.777,-6.338 -3,-10 z"
       id="path2615" />
  </g>
  <g
     id="g2621"
     transform="translate(-324.5,-90.505247)">
    <path
       style="opacity:0.994"
       fill="#fefefe"
       d="m 1602.5,566.5 c 4.02,16.895 8.35,33.728 13,50.5 -0.09,1.107 -0.42,2.107 -1,3 -5.53,3.106 -11.2,5.606 -17,7.5 -0.99,-0.172 -1.66,0.162 -2,1 -6.49,0.48 -12.99,0.813 -19.5,1 -7.31,0.255 -14.48,-0.578 -21.5,-2.5 -4.33,-15 -8.67,-30 -13,-45 -21.47,1.184 -42.81,3.684 -64,7.5 -1.01,2.695 -2.01,5.362 -3,8 -3.66,12.815 -7.83,25.482 -12.5,38 -5.75,0.994 -11.59,1.66 -17.5,2 -13.59,0.242 -26.25,-3.258 -38,-10.5 -1.3,-0.804 -1.97,-1.971 -2,-3.5 29.67,-83.351 59.34,-166.685 89,-250 0.36,-1.871 1.36,-3.371 3,-4.5 16.8,-9.722 33.63,-9.889 50.5,-0.5 18.44,66.141 36.94,132.141 55.5,198 z m -100,-66 c 2.22,11.295 4.22,22.628 6,34 -6.03,0.671 -12.03,1.171 -18,1.5 3.93,-11.952 7.93,-23.785 12,-35.5 z"
       id="path2619" />
  </g>
  <g
     id="g2625"
     transform="translate(-324.5,-90.505247)">
    <path
       style="opacity:0.992"
       fill="#fefefe"
       d="m 2653.5,442.5 c -0.56,-1.29 -1.56,-2.123 -3,-2.5 -17.65,-7.333 -35.99,-10.333 -55,-9 -8.4,2.033 -15.74,5.867 -22,11.5 -12.27,11.869 -20.44,26.203 -24.5,43 -7.32,26.774 -2.98,51.441 13,74 8.87,10.016 20.04,15.016 33.5,15 21.45,-1.393 42.45,-4.893 63,-10.5 9.73,17.408 10.39,35.074 2,53 -6.14,3.074 -12.47,5.574 -19,7.5 -41.23,19.25 -79.9,15.084 -116,-12.5 -20.93,-21.073 -32.43,-46.573 -34.5,-76.5 -2.23,-32.79 1.77,-64.79 12,-96 7.18,-20.741 19.01,-38.074 35.5,-52 16.03,-10.735 33.7,-17.235 53,-19.5 15.69,-0.717 31.35,-0.383 47,1 16.94,2.215 30.11,10.382 39.5,24.5 4.94,20.846 -0.39,38.513 -16,53 -2.66,-1.746 -5.49,-3.08 -8.5,-4 z"
       id="path2623" />
  </g>
  <g
     id="g2629"
     transform="translate(-324.5,-90.505247)">
    <path
       style="opacity:0.994"
       fill="#fefefe"
       d="m 1448.5,449.5 c -0.9,18.617 -5.4,36.284 -13.5,53 -3,4.492 -6.16,8.825 -9.5,13 -0.67,0 -1,0.333 -1,1 -9.25,7.793 -19.58,13.793 -31,18 -29.61,8.235 -59.61,14.568 -90,19 -0.61,3.196 -0.61,6.196 0,9 -2.53,21.975 -5.2,43.975 -8,66 -6.52,2.297 -13.19,3.964 -20,5 -12.88,1.032 -24.54,-2.135 -35,-9.5 -1.3,-0.804 -1.97,-1.971 -2,-3.5 7.38,-76.306 14.54,-152.639 21.5,-229 0.12,-3.004 0.95,-5.671 2.5,-8 5.16,-3.637 10.49,-7.137 16,-10.5 36.9,-4.119 73.9,-5.452 111,-4 15.93,0.643 30.26,5.643 43,15 9.09,9.675 14.25,21.175 15.5,34.5 0.21,5.385 0.71,10.719 1.5,16 -0.95,4.935 -1.28,9.935 -1,15 z m -133,-16 c 12.05,-0.365 24.05,0.135 36,1.5 10.93,0.932 17.43,6.765 19.5,17.5 2.07,14.497 -0.76,27.83 -8.5,40 -17.77,4.377 -35.77,5.71 -54,4 2.7,-20.944 5.03,-41.944 7,-63 z"
       id="path2627" />
  </g>
  <g
     id="g2633"
     transform="translate(-324.5,-90.505247)">
    <path
       style="opacity:0.994"
       fill="#fefefe"
       d="m 2356.5,497.5 c 1.05,7.193 2.88,14.193 5.5,21 22.18,-45.689 44.34,-91.355 66.5,-137 0.65,-5.491 3.65,-8.658 9,-9.5 14.67,-2.841 29.33,-2.674 44,0.5 -1.92,32.673 -3.92,65.34 -6,98 -2.21,28.296 -3.87,56.63 -5,85 -1.59,25.34 -3.26,50.674 -5,76 -6.67,0 -13.33,0 -20,0 -11.82,-0.995 -23.82,-1.328 -36,-1 0,-3 0,-6 0,-9 1.89,-37.018 3.72,-74.018 5.5,-111 -8.14,18.581 -15.97,37.247 -23.5,56 -9.39,20.459 -18.56,41.126 -27.5,62 -5.54,3.071 -11.37,3.738 -17.5,2 -2.97,-2.141 -5.47,-4.808 -7.5,-8 -8.84,-37.037 -17.84,-74.037 -27,-111 -2.65,24.603 -4.82,49.269 -6.5,74 -0.69,15.356 -1.69,30.689 -3,46 -6.67,0 -13.33,0 -20,0 -12,0 -24,0 -36,0 4.86,-84.027 10.19,-168.027 16,-252 -0.26,-2.292 0.08,-4.459 1,-6.5 19.68,-6.175 39.18,-5.675 58.5,1.5 11.37,41.162 22.87,82.162 34.5,123 z"
       id="path2631" />
  </g>
  <g
     id="g2637"
     transform="translate(-324.5,-90.505247)">
    <path
       style="opacity:0.994"
       fill="#fefefe"
       d="m 1825.5,412.5 c 3.68,26.613 2.01,52.946 -5,79 -9.25,21.916 -25.25,36.583 -48,44 -29.61,8.235 -59.61,14.568 -90,19 -0.61,3.196 -0.61,6.196 0,9 -2.53,21.975 -5.2,43.975 -8,66 -6.52,2.297 -13.19,3.964 -20,5 -12.88,1.032 -24.54,-2.135 -35,-9.5 -1.3,-0.804 -1.97,-1.971 -2,-3.5 7.38,-76.306 14.54,-152.639 21.5,-229 0.12,-3.004 0.95,-5.671 2.5,-8 5.16,-3.637 10.49,-7.137 16,-10.5 39.59,-4.54 79.26,-5.54 119,-3 16.9,1.532 30.74,8.699 41.5,21.5 3.92,6.16 6.42,12.827 7.5,20 z m -131,22 c 12.05,-0.365 24.05,0.135 36,1.5 10.93,0.932 17.43,6.765 19.5,17.5 2.07,14.497 -0.76,27.83 -8.5,40 -17.77,4.377 -35.77,5.71 -54,4 2.7,-20.944 5.03,-41.944 7,-63 z"
       id="path2635" />
  </g>
  <g
     id="g2641"
     transform="translate(-324.5,-90.505247)">
    <path
       style="opacity:0.992"
       fill="#fefefe"
       d="m 2239.5,419.5 c 0.82,20.158 -0.51,40.158 -4,60 -7.61,24.275 -23.61,40.275 -48,48 -5.08,1.684 -10.08,3.517 -15,5.5 0.58,1.417 1.58,2.25 3,2.5 16.6,22.929 33.93,45.263 52,67 1.38,3.241 3.05,6.407 5,9.5 -2.22,4.286 -4.56,8.453 -7,12.5 -6.28,6.607 -13.95,10.607 -23,12 -8.81,0.529 -17.48,-0.304 -26,-2.5 -20.54,-28.905 -40.7,-58.072 -60.5,-87.5 -0.89,-0.581 -1.89,-0.915 -3,-1 -6.14,0.997 -12.3,1.663 -18.5,2 0,3.667 0,7.333 0,11 -2.5,23.652 -5,47.319 -7.5,71 -6.53,2.841 -13.36,4.508 -20.5,5 -11.94,1.43 -22.94,-1.07 -33,-7.5 -1.9,-1.265 -3.23,-2.931 -4,-5 7.33,-76.147 14.5,-152.313 21.5,-228.5 0.06,-3.311 0.89,-6.311 2.5,-9 4.97,-3.156 9.97,-6.323 15,-9.5 41.23,-5.695 82.56,-6.695 124,-3 27.33,4.499 43,20.332 47,47.5 z m -83,67 c -18.41,4.174 -37.08,5.841 -56,5 1.93,-18.675 3.93,-37.342 6,-56 14.16,-1.713 28.16,-0.88 42,2.5 10.81,4.691 15.48,13.024 14,25 0.11,8.399 -1.89,16.232 -6,23.5 z"
       id="path2639" />
  </g>
  <g
     id="g2645"
     transform="translate(-324.5,-90.505247)">
    <path
       style="opacity:0.995"
       fill="#fefefe"
       d="m 2000.5,423.5 c -32.33,0 -64.67,0 -97,0 0,3.667 0,7.333 0,11 -1.15,11.296 -1.82,22.629 -2,34 31.01,-0.333 62.01,0 93,1 7.23,16.212 6.56,32.046 -2,47.5 -5.32,0.499 -10.66,0.666 -16,0.5 -26.67,0 -53.33,0 -80,0 0,3.667 0,7.333 0,11 -1.51,13.965 -2.85,27.965 -4,42 38.67,-0.167 77.33,0 116,0.5 1.78,3.876 3.45,7.709 5,11.5 2.24,14.056 0.91,27.723 -4,41 -1.31,1.935 -2.64,3.935 -4,6 -5.29,0.995 -10.63,1.328 -16,1 -50,0.167 -100,0 -150,-0.5 -4.54,-1.724 -6.87,-5.057 -7,-10 5.36,-78.841 10.69,-157.674 16,-236.5 0.91,-4.089 2.91,-7.589 6,-10.5 55.34,-0.833 110.67,-0.667 166,0.5 4.14,14.714 3.97,29.38 -0.5,44 -0.84,1.851 -1.67,3.684 -2.5,5.5 -5.66,0.499 -11.32,0.666 -17,0.5 z"
       id="path2643" />
  </g>
  <g
     id="g2649"
     transform="translate(-324.5,-90.505247)">
    <path
       style="opacity:0.971"
       fill="#010101"
       d="m 1493.5,373.5 c -29.66,83.315 -59.33,166.649 -89,250 0.03,1.529 0.7,2.696 2,3.5 11.75,7.242 24.41,10.742 38,10.5 -1.04,3.277 -2.37,6.443 -4,9.5 -17.63,3.041 -34.63,1.041 -51,-6 -2.69,-1.698 -5.02,-3.698 -7,-6 14.44,-39.371 28.44,-78.871 42,-118.5 0.67,0 1,-0.333 1,-1 3.34,-4.175 6.5,-8.508 9.5,-13 8.1,-16.716 12.6,-34.383 13.5,-53 8.24,-22.197 16.4,-44.53 24.5,-67 6.01,-4.837 12.84,-7.837 20.5,-9 z"
       id="path2647" />
  </g>
  <g
     id="g2653"
     transform="translate(-324.5,-90.505247)">
    <path
       style="opacity:0.991"
       fill="#f6e245"
       d="m 1032.5,375.5 c 42.1,40.495 84.44,80.829 127,121 1.13,1.574 1.3,3.241 0.5,5 -8.77,8.676 -17.27,17.343 -25.5,26 -34.33,-42 -68.67,-84 -103,-126 -0.33,-8.849 0.01,-17.516 1,-26 z"
       id="path2651" />
  </g>
  <g
     id="g2657"
     transform="translate(-324.5,-90.505247)">
    <path
       style="opacity:0.985"
       fill="#000000"
       d="m 2262.5,379.5 c -5.81,83.973 -11.14,167.973 -16,252 12,0 24,0 36,0 -0.44,3.654 -0.78,7.321 -1,11 -19,0 -38,0 -57,0 0.57,-5.984 0.91,-11.984 1,-18 2.44,-4.047 4.78,-8.214 7,-12.5 -1.95,-3.093 -3.62,-6.259 -5,-9.5 2.49,-41.012 5.16,-82.012 8,-123 3.49,-19.842 4.82,-39.842 4,-60 0.94,-11.65 1.78,-23.317 2.5,-35 6.53,-2.841 13.36,-4.507 20.5,-5 z"
       id="path2655" />
  </g>
  <g
     id="g2661"
     transform="translate(-324.5,-90.505247)">
    <path
       style="opacity:0.965"
       fill="#020202"
       d="m 2428.5,381.5 c -22.16,45.645 -44.32,91.311 -66.5,137 -2.62,-6.807 -4.45,-13.807 -5.5,-21 17.99,-37.311 35.99,-74.645 54,-112 5.65,-2.612 11.65,-3.946 18,-4 z"
       id="path2659" />
  </g>
  <g
     id="g2665"
     transform="translate(-324.5,-90.505247)">
    <path
       style="opacity:0.976"
       fill="#000000"
       d="m 1262.5,383.5 c -1.55,2.329 -2.38,4.996 -2.5,8 -6.96,76.361 -14.12,152.694 -21.5,229 0.03,1.529 0.7,2.696 2,3.5 10.46,7.365 22.12,10.532 35,9.5 0.42,2.579 -0.25,4.746 -2,6.5 -15.71,5.881 -31.38,5.881 -47,0 -2.67,-1.667 -5.33,-3.333 -8,-5 6.06,-79.82 13.23,-159.653 21.5,-239.5 5.83,-3.833 11.67,-7.667 17.5,-11.5 1.63,-0.494 3.3,-0.66 5,-0.5 z"
       id="path2663" />
  </g>
  <g
     id="g2669"
     transform="translate(-324.5,-90.505247)">
    <path
       style="opacity:0.988"
       fill="#000000"
       d="m 1848.5,383.5 c -5.31,78.826 -10.64,157.659 -16,236.5 0.13,4.943 2.46,8.276 7,10 50,0.5 100,0.667 150,0.5 -1.13,3.59 -2.8,6.923 -5,10 -27.83,0.333 -55.67,0.667 -83.5,1 -28.58,0.159 -57.08,-0.341 -85.5,-1.5 -2.97,-2.265 -4.3,-5.265 -4,-9 3.29,-46.484 6.29,-92.984 9,-139.5 7.01,-26.054 8.68,-52.387 5,-79 0.72,-6.535 1.56,-13.202 2.5,-20 1.2,-3.226 3.03,-6.059 5.5,-8.5 4.99,-0.499 9.99,-0.666 15,-0.5 z"
       id="path2667" />
  </g>
  <g
     id="g2673"
     transform="translate(-324.5,-90.505247)">
    <path
       style="opacity:0.977"
       fill="#000000"
       d="m 1641.5,384.5 c -1.55,2.329 -2.38,4.996 -2.5,8 -6.96,76.361 -14.12,152.694 -21.5,229 0.03,1.529 0.7,2.696 2,3.5 10.46,7.365 22.12,10.532 35,9.5 0.77,4.251 -0.9,6.751 -5,7.5 -18.42,6.272 -35.75,4.272 -52,-6 -1.29,-2.832 -1.29,-5.665 0,-8.5 5.8,-1.894 11.47,-4.394 17,-7.5 0.58,-0.893 0.91,-1.893 1,-3 -4.65,-16.772 -8.98,-33.605 -13,-50.5 5.35,-56.66 10.85,-113.326 16.5,-170 5.83,-3.833 11.67,-7.667 17.5,-11.5 1.63,-0.494 3.3,-0.66 5,-0.5 z"
       id="path2671" />
  </g>
  <g
     id="g2677"
     transform="translate(-324.5,-90.505247)">
    <path
       style="opacity:0.98"
       fill="#000000"
       d="m 2053.5,384.5 c -1.61,2.689 -2.44,5.689 -2.5,9 -7,76.187 -14.17,152.353 -21.5,228.5 0.77,2.069 2.1,3.735 4,5 10.06,6.43 21.06,8.93 33,7.5 0.16,2.027 0,4.027 -0.5,6 -16.45,6.392 -32.95,6.559 -49.5,0.5 -2.5,-1.833 -5,-3.667 -7.5,-5.5 -0.17,-3.993 0,-7.993 0.5,-12 4.91,-13.277 6.24,-26.944 4,-41 5.34,-62.086 11.34,-124.086 18,-186 6.82,-5.075 14.15,-9.075 22,-12 z"
       id="path2675" />
  </g>
  <g
     id="g2681"
     transform="translate(-324.5,-90.505247)">
    <path
       style="opacity:0.976"
       fill="#010101"
       d="m 2538.5,387.5 c -16.49,13.926 -28.32,31.259 -35.5,52 -10.23,31.21 -14.23,63.21 -12,96 2.07,29.927 13.57,55.427 34.5,76.5 36.1,27.584 74.77,31.75 116,12.5 -0.01,1.517 -0.68,2.684 -2,3.5 -18.47,8.934 -37.8,15.268 -58,19 -63.22,0.922 -100.22,-29.578 -111,-91.5 1.13,-28.37 2.79,-56.704 5,-85 4.87,-21.098 13.7,-40.431 26.5,-58 10.1,-11.248 22.26,-19.581 36.5,-25 z"
       id="path2679" />
  </g>
  <g
     id="g2685"
     transform="translate(-324.5,-90.505247)">
    <path
       style="opacity:1"
       fill="#a39730"
       d="m 1031.5,401.5 c 34.33,42 68.67,84 103,126 -3.69,4.026 -7.36,8.026 -11,12 -2.91,-1.739 -5.41,-4.072 -7.5,-7 -27.64,-40.125 -55.81,-79.792 -84.5,-119 0,-4 0,-8 0,-12 z"
       id="path2683" />
  </g>
  <g
     id="g2689"
     transform="translate(-324.5,-90.505247)">
    <path
       style="opacity:1"
       fill="#2d5f8f"
       d="m 363.5,410.5 c 0.876,-0.131 1.543,0.202 2,1 25.292,52.248 50.292,104.582 75,157 0,0.333 0,0.667 0,1 -0.039,1.256 0.461,2.256 1.5,3 0.5,8.994 0.666,17.994 0.5,27 -1.406,-0.473 -2.073,-1.473 -2,-3 0.664,-2.646 0.998,-5.479 1,-8.5 0.084,-3.62 -0.416,-7.12 -1.5,-10.5 -29.368,-51.725 -58.368,-103.725 -87,-156 -0.671,-0.752 -1.504,-1.086 -2.5,-1 4.114,-3.564 8.448,-6.897 13,-10 z"
       id="path2687" />
  </g>
  <g
     id="g2693"
     transform="translate(-324.5,-90.505247)">
    <path
       style="opacity:0.996"
       fill="#428dda"
       d="m 1031.5,413.5 c 28.69,39.208 56.86,78.875 84.5,119 2.09,2.928 4.59,5.261 7.5,7 6.84,11.682 14.68,22.682 23.5,33 1.18,2.37 2.35,4.703 3.5,7 -0.03,1.529 -0.7,2.696 -2,3.5 -6.87,4.262 -13.53,8.762 -20,13.5 -1.52,-0.011 -2.68,-0.677 -3.5,-2 -30.45,-55.914 -61.62,-111.247 -93.5,-166 0,-5 0,-10 0,-15 z"
       id="path2691" />
  </g>
  <g
     id="g2697"
     transform="translate(-324.5,-90.505247)">
    <path
       style="opacity:0.996"
       fill="#408ddb"
       d="m 350.5,420.5 c 0.996,-0.086 1.829,0.248 2.5,1 28.632,52.275 57.632,104.275 87,156 1.084,3.38 1.584,6.88 1.5,10.5 -0.002,3.021 -0.336,5.854 -1,8.5 -26.636,-36.582 -52.803,-73.582 -78.5,-111 -1.129,-1.641 -2.629,-2.641 -4.5,-3 -10.529,-14.696 -20.862,-29.529 -31,-44.5 0.259,-1.261 0.926,-2.261 2,-3 7.504,-4.689 14.838,-9.522 22,-14.5 z"
       id="path2695" />
  </g>
  <g
     id="g2701"
     transform="translate(-324.5,-90.505247)">
    <path
       style="opacity:0.976"
       fill="#020202"
       d="m 1362.5,492.5 c 7.74,-12.17 10.57,-25.503 8.5,-40 -2.07,-10.735 -8.57,-16.568 -19.5,-17.5 -11.95,-1.365 -23.95,-1.865 -36,-1.5 -0.44,-3.307 0.23,-6.307 2,-9 16.6,-1.905 33.26,-2.405 50,-1.5 7.59,0.53 14.43,3.03 20.5,7.5 3.58,5.996 5.42,12.496 5.5,19.5 -0.59,10.851 -3.42,21.018 -8.5,30.5 -6.43,5.964 -13.93,9.964 -22.5,12 z"
       id="path2699" />
  </g>
  <g
     id="g2705"
     transform="translate(-324.5,-90.505247)">
    <path
       style="opacity:0.976"
       fill="#020202"
       d="m 1741.5,493.5 c 7.74,-12.17 10.57,-25.503 8.5,-40 -2.07,-10.735 -8.57,-16.568 -19.5,-17.5 -11.95,-1.365 -23.95,-1.865 -36,-1.5 -0.44,-3.307 0.23,-6.307 2,-9 16.6,-1.905 33.26,-2.405 50,-1.5 7.59,0.53 14.43,3.03 20.5,7.5 3.58,5.996 5.42,12.496 5.5,19.5 -0.59,10.851 -3.42,21.018 -8.5,30.5 -6.43,5.964 -13.93,9.964 -22.5,12 z"
       id="path2703" />
  </g>
  <g
     id="g2709"
     transform="translate(-324.5,-90.505247)">
    <path
       style="opacity:0.969"
       fill="#000000"
       d="m 2000.5,423.5 c -0.91,3.659 -2.25,7.159 -4,10.5 -31,0.5 -62,0.667 -93,0.5 0,-3.667 0,-7.333 0,-11 32.33,0 64.67,0 97,0 z"
       id="path2707" />
  </g>
  <g
     id="g2713"
     transform="translate(-324.5,-90.505247)">
    <path
       style="opacity:0.976"
       fill="#020202"
       d="m 2156.5,486.5 c 4.11,-7.268 6.11,-15.101 6,-23.5 1.48,-11.976 -3.19,-20.309 -14,-25 -13.84,-3.38 -27.84,-4.213 -42,-2.5 -0.04,-3.381 0.29,-6.714 1,-10 15.29,-1.652 30.63,-2.152 46,-1.5 10.22,-0.373 19.06,2.794 26.5,9.5 6.35,14.823 5.35,29.156 -3,43 -5.84,5.336 -12.67,8.669 -20.5,10 z"
       id="path2711" />
  </g>
  <g
     id="g2717"
     transform="translate(-324.5,-90.505247)">
    <path
       style="opacity:0.96"
       fill="#010101"
       d="m 2653.5,442.5 c -3.19,5.668 -7.36,10.668 -12.5,15 -21,-11.965 -43.5,-16.965 -67.5,-15 6.26,-5.633 13.6,-9.467 22,-11.5 19.01,-1.333 37.35,1.667 55,9 1.44,0.377 2.44,1.21 3,2.5 z"
       id="path2715" />
  </g>
  <g
     id="g2721"
     transform="translate(-324.5,-90.505247)">
    <path
       style="opacity:0.999"
       fill="#2b5e91"
       d="m 1031.5,428.5 c 31.88,54.753 63.05,110.086 93.5,166 0.82,1.323 1.98,1.989 3.5,2 -4.52,4.061 -9.52,7.395 -15,10 -1.25,-0.077 -2.08,-0.744 -2.5,-2 -26.06,-55.003 -52.23,-110.003 -78.5,-165 -0.92,-3.564 -1.26,-7.231 -1,-11 z"
       id="path2719" />
  </g>
  <g
     id="g2725"
     transform="translate(-324.5,-90.505247)">
    <path
       style="opacity:0.999"
       fill="#94d405"
       d="m 1032.5,439.5 c 26.27,54.997 52.44,109.997 78.5,165 0.42,1.256 1.25,1.923 2.5,2 6.22,13.811 12.56,27.645 19,41.5 -0.26,1.261 -0.93,2.261 -2,3 -3.51,1.372 -6.84,3.038 -10,5 -6.74,2.206 -13.08,5.206 -19,9 -1.63,0.494 -3.3,0.66 -5,0.5 -21.21,-69.168 -42.87,-138.168 -65,-207 -0.32,-6.522 0.01,-12.855 1,-19 z"
       id="path2723" />
  </g>
  <g
     id="g2729"
     transform="translate(-324.5,-90.505247)">
    <path
       style="opacity:1"
       fill="#2f2f2f"
       d="m 783.5,497.5 c -42.431,31.073 -84.431,62.906 -126,95.5 -4.774,2.28 -8.774,1.446 -12,-2.5 43.667,-35.333 87.333,-70.667 131,-106 17.605,-14.128 35.272,-27.961 53,-41.5 -15.515,18.014 -30.848,36.181 -46,54.5 z"
       id="path2727" />
  </g>
  <g
     id="g2733"
     transform="translate(-324.5,-90.505247)">
    <path
       style="opacity:0.988"
       fill="#020202"
       d="m 1508.5,534.5 c -1.78,-11.372 -3.78,-22.705 -6,-34 4.12,-15.865 8.95,-31.532 14.5,-47 4.75,25.183 9.59,50.35 14.5,75.5 -0.25,1.326 -0.92,2.326 -2,3 -7.02,0.753 -14.02,1.586 -21,2.5 z"
       id="path2731" />
  </g>
  <g
     id="g2737"
     transform="translate(-324.5,-90.505247)">
    <path
       style="opacity:0.998"
       fill="#6a9301"
       d="m 1031.5,458.5 c 22.13,68.832 43.79,137.832 65,207 -4.17,2.812 -8.51,5.479 -13,8 -4.15,-13.626 -7.82,-27.292 -11,-41 0.09,-2.652 -0.58,-4.985 -2,-7 -12.4,-52.932 -25.4,-105.599 -39,-158 0,-3 0,-6 0,-9 z"
       id="path2735" />
  </g>
  <g
     id="g2741"
     transform="translate(-324.5,-90.505247)">
    <path
       style="opacity:1"
       fill="#fc4f56"
       d="m 1031.5,467.5 c 13.6,52.401 26.6,105.068 39,158 -0.09,2.652 0.58,4.985 2,7 3.18,13.708 6.85,27.374 11,41 4.25,17.179 8.59,34.346 13,51.5 -1.22,1.74 -2.88,2.74 -5,3 -15.89,4.14 -31.89,7.973 -48,11.5 -3.07,-75.534 -7.07,-150.867 -12,-226 0,-15.333 0,-30.667 0,-46 z"
       id="path2739" />
  </g>
  <g
     id="g2745"
     transform="translate(-324.5,-90.505247)">
    <path
       style="opacity:1"
       fill="#a19632"
       d="m 357.5,482.5 c 1.871,0.359 3.371,1.359 4.5,3 25.697,37.418 51.864,74.418 78.5,111 -0.073,1.527 0.594,2.527 2,3 0.327,9.848 -0.006,19.514 -1,29 0.166,-6.675 0,-13.342 -0.5,-20 -31.001,-38.497 -62.167,-76.831 -93.5,-115 2.623,-4.291 5.956,-7.957 10,-11 z"
       id="path2743" />
  </g>
  <g
     id="g2749"
     transform="translate(-324.5,-90.505247)">
    <path
       style="opacity:0.991"
       fill="#f5e245"
       d="m 347.5,493.5 c 31.333,38.169 62.499,76.503 93.5,115 0.5,6.658 0.666,13.325 0.5,20 0,0.333 0,0.667 0,1 -27.21,-25.379 -54.21,-50.879 -81,-76.5 -1.537,-1.11 -2.203,-2.61 -2,-4.5 -1.052,0.149 -2.052,-0.017 -3,-0.5 -10.234,-10.402 -20.568,-20.569 -31,-30.5 5.695,-7.373 11.862,-14.373 18.5,-21 1.615,-0.886 3.115,-1.886 4.5,-3 z"
       id="path2747" />
  </g>
  <g
     id="g2753"
     transform="translate(-324.5,-90.505247)">
    <path
       style="opacity:0.981"
       fill="#000000"
       d="m 2409.5,621.5 c -0.98,3.125 -1.31,6.458 -1,10 12.33,0 24.67,0 37,0 -0.22,3.679 -0.56,7.346 -1,11 -19,0 -38,0 -57,0 1.37,-25.331 2.71,-50.664 4,-76 7.53,-18.753 15.36,-37.419 23.5,-56 -1.78,36.982 -3.61,73.982 -5.5,111 z"
       id="path2751" />
  </g>
  <g
     id="g2757"
     transform="translate(-324.5,-90.505247)">
    <path
       style="opacity:0.982"
       fill="#020202"
       d="m 2346.5,630.5 c -2.12,10.353 -8.45,14.186 -19,11.5 -3.77,-1.302 -6.94,-3.469 -9.5,-6.5 -3.88,-16.868 -8.05,-33.534 -12.5,-50 1.68,-24.731 3.85,-49.397 6.5,-74 9.16,36.963 18.16,73.963 27,111 2.03,3.192 4.53,5.859 7.5,8 z"
       id="path2755" />
  </g>
  <g
     id="g2761"
     transform="translate(-324.5,-90.505247)">
    <path
       style="opacity:0.991"
       fill="#000000"
       d="m 1976.5,517.5 c -1.25,3.676 -2.92,7.176 -5,10.5 -25,0.5 -50,0.667 -75,0.5 0,-3.667 0,-7.333 0,-11 26.67,0 53.33,0 80,0 z"
       id="path2759" />
  </g>
  <g
     id="g2765"
     transform="translate(-324.5,-90.505247)">
    <path
       style="opacity:0.772"
       fill="#0a0a0a"
       d="m 2187.5,527.5 c -3.73,3.059 -7.73,5.726 -12,8 -1.42,-0.25 -2.42,-1.083 -3,-2.5 4.92,-1.983 9.92,-3.816 15,-5.5 z"
       id="path2763" />
  </g>
  <g
     id="g2769"
     transform="translate(-324.5,-90.505247)">
    <path
       style="opacity:1"
       fill="#a7a7a7"
       d="m 776.5,484.5 c -43.667,35.333 -87.333,70.667 -131,106 -2.767,2.418 -5.767,2.584 -9,0.5 -29.28,-13.081 -58.947,-25.414 -89,-37 -4.581,-3.438 -6.081,-7.938 -4.5,-13.5 0.66,-1.824 1.827,-3.157 3.5,-4 -1.553,6.415 0.447,11.581 6,15.5 28.793,12.321 57.793,24.154 87,35.5 1.438,-0.219 2.771,-0.719 4,-1.5 32.819,-25.908 65.819,-51.575 99,-77 11.215,-8.431 22.549,-16.597 34,-24.5 z"
       id="path2767" />
  </g>
  <g
     id="g2773"
     transform="translate(-324.5,-90.505247)">
    <path
       style="opacity:0.916"
       fill="#060606"
       d="m 1393.5,534.5 c -8.33,6.328 -17.66,10.828 -28,13.5 -20.68,4.838 -41.35,9.672 -62,14.5 -0.61,-2.804 -0.61,-5.804 0,-9 30.39,-4.432 60.39,-10.765 90,-19 z"
       id="path2771" />
  </g>
  <g
     id="g2777"
     transform="translate(-324.5,-90.505247)">
    <path
       style="opacity:0.916"
       fill="#060606"
       d="m 1772.5,535.5 c -8.33,6.328 -17.66,10.828 -28,13.5 -20.68,4.838 -41.35,9.672 -62,14.5 -0.61,-2.804 -0.61,-5.804 0,-9 30.39,-4.432 60.39,-10.765 90,-19 z"
       id="path2775" />
  </g>
  <g
     id="g2781"
     transform="translate(-324.5,-90.505247)">
    <path
       style="opacity:1"
       fill="#af363c"
       d="m 1031.5,513.5 c 4.93,75.133 8.93,150.466 12,226 -3.87,0.372 -7.54,1.372 -11,3 -1,-76.262 -1.33,-152.596 -1,-229 z"
       id="path2779" />
  </g>
  <g
     id="g2785"
     transform="translate(-324.5,-90.505247)">
    <path
       style="opacity:0.973"
       fill="#010101"
       d="m 2202.5,636.5 c -7.68,7.915 -17.18,11.915 -28.5,12 -6.62,-0.517 -13.12,-1.684 -19.5,-3.5 -19.9,-28.987 -39.9,-57.82 -60,-86.5 0,-3.667 0,-7.333 0,-11 6.2,-0.337 12.36,-1.003 18.5,-2 1.11,0.085 2.11,0.419 3,1 19.8,29.428 39.96,58.595 60.5,87.5 8.52,2.196 17.19,3.029 26,2.5 z"
       id="path2783" />
  </g>
  <g
     id="g2789"
     transform="translate(-324.5,-90.505247)">
    <path
       style="opacity:0.971"
       fill="#010101"
       d="m 1595.5,628.5 c 0.09,0.996 -0.25,1.829 -1,2.5 -7.76,4.587 -16.1,7.587 -25,9 -11.71,0.832 -23.37,0.499 -35,-1 -1.91,-1.701 -3.08,-3.867 -3.5,-6.5 -3.35,-13.049 -6.85,-26.049 -10.5,-39 -1,-0.333 -2,-0.667 -3,-1 -14.3,2.033 -28.63,3.7 -43,5 0.99,-2.638 1.99,-5.305 3,-8 21.19,-3.816 42.53,-6.316 64,-7.5 4.33,15 8.67,30 13,45 7.02,1.922 14.19,2.755 21.5,2.5 6.51,-0.187 13.01,-0.52 19.5,-1 z"
       id="path2787" />
  </g>
  <g
     id="g2793"
     transform="translate(-324.5,-90.505247)">
    <path
       style="opacity:1"
       fill="#aaaaaa"
       d="m 857.5,676.5 c 4.693,4.266 9.859,4.932 15.5,2 0.406,-3.242 1.239,-6.242 2.5,-9 0.912,10.421 -3.754,15.088 -14,14 -27.12,-10.815 -54.12,-21.815 -81,-33 -2.756,-1.704 -5.756,-3.037 -9,-4 -20.929,-9.76 -42.263,-18.76 -64,-27 -0.333,0.333 -0.667,0.667 -1,1 5.96,10.374 10.46,21.374 13.5,33 1.753,9.039 3.586,18.039 5.5,27 -2.743,3.925 -4.743,8.258 -6,13 -4.943,5.774 -10.443,11.108 -16.5,16 -0.464,0.594 -0.631,1.261 -0.5,2 -0.333,0 -0.667,0 -1,0 -2.196,-1.354 -3.696,-3.354 -4.5,-6 -0.667,-28.667 -0.667,-57.333 0,-86 0.465,-1.431 1.299,-2.597 2.5,-3.5 4.826,-0.618 9.492,0.049 14,2 47.928,19.802 95.928,39.302 144,58.5 z"
       id="path2791" />
  </g>
  <g
     id="g2797"
     transform="translate(-324.5,-90.505247)">
    <path
       style="opacity:1"
       fill="#959595"
       d="m 771.5,646.5 c -2.283,0.108 -4.283,0.941 -6,2.5 -15.453,14.618 -30.786,29.451 -46,44.5 1.257,-4.742 3.257,-9.075 6,-13 -1.914,-8.961 -3.747,-17.961 -5.5,-27 -3.04,-11.626 -7.54,-22.626 -13.5,-33 0.333,-0.333 0.667,-0.667 1,-1 21.737,8.24 43.071,17.24 64,27 z"
       id="path2795" />
  </g>
  <g
     id="g2801"
     transform="translate(-324.5,-90.505247)">
    <path
       style="opacity:1"
       fill="#b6b6b6"
       d="m 2409.5,621.5 c 0,3 0,6 0,9 12.18,-0.328 24.18,0.005 36,1 -12.33,0 -24.67,0 -37,0 -0.31,-3.542 0.02,-6.875 1,-10 z"
       id="path2799" />
  </g>
  <g
     id="g2805"
     transform="translate(-324.5,-90.505247)">
    <path
       style="opacity:1"
       fill="#bb6d31"
       d="m 1070.5,625.5 c 1.42,2.015 2.09,4.348 2,7 -1.42,-2.015 -2.09,-4.348 -2,-7 z"
       id="path2803" />
  </g>
  <g
     id="g2809"
     transform="translate(-324.5,-90.505247)">
    <path
       style="opacity:1"
       fill="#2e2e2e"
       d="m 771.5,646.5 c 3.244,0.963 6.244,2.296 9,4 -21.437,19.6 -42.771,39.433 -64,59.5 -4.241,4.094 -8.907,4.594 -14,1.5 -0.131,-0.739 0.036,-1.406 0.5,-2 6.057,-4.892 11.557,-10.226 16.5,-16 15.214,-15.049 30.547,-29.882 46,-44.5 1.717,-1.559 3.717,-2.392 6,-2.5 z"
       id="path2807" />
  </g>
  <g
     id="g2813"
     transform="translate(-324.5,-90.505247)">
    <path
       style="opacity:1"
       fill="#4c5930"
       d="m 738.5,812.5 c 16.333,-1.333 32.667,-1.333 49,0 0,0.667 -0.333,1 -1,1 -11.154,-0.995 -22.488,-1.328 -34,-1 -4.667,0 -9.333,0 -14,0 z"
       id="path2811" />
  </g>
  <g
     id="g2817"
     transform="translate(-324.5,-90.505247)">
    <path
       style="opacity:1"
       fill="#b0363c"
       d="m 508.5,812.5 c 76.333,0 152.667,0 229,0 -1.714,1.238 -3.714,1.905 -6,2 -2.646,-0.664 -5.479,-0.998 -8.5,-1 -70.516,3.683 -141.016,7.35 -211.5,11 -0.997,-3.979 -1.997,-7.979 -3,-12 z"
       id="path2815" />
  </g>
  <g
     id="g2821"
     transform="translate(-324.5,-90.505247)">
    <path
       style="opacity:0.997"
       fill="#6b9202"
       d="m 737.5,812.5 c 0.333,0 0.667,0 1,0 4.667,0 9.333,0 14,0 -56.664,18.776 -113.664,36.776 -171,54 -2.191,-3.907 -4.191,-7.907 -6,-12 1.348,-1.98 3.348,-3.147 6,-3.5 50.094,-11.867 100.094,-24.033 150,-36.5 2.286,-0.095 4.286,-0.762 6,-2 z"
       id="path2819" />
  </g>
  <g
     id="g2825"
     transform="translate(-324.5,-90.505247)">
    <path
       style="opacity:0.999"
       fill="#95d401"
       d="m 752.5,812.5 c 11.512,-0.328 22.846,0.005 34,1 -47.449,22.385 -95.116,44.885 -143,67.5 -1.21,1.039 -2.21,2.206 -3,3.5 -13.703,5.809 -27.203,12.142 -40.5,19 -1,-1 -2,-2 -3,-3 -5.448,-11.258 -10.615,-22.591 -15.5,-34 57.336,-17.224 114.336,-35.224 171,-54 z"
       id="path2823" />
  </g>
  <g
     id="g2829"
     transform="translate(-324.5,-90.505247)">
    <path
       style="opacity:0.999"
       fill="#2d5f8e"
       d="m 787.5,812.5 c 4,0 8,0 12,0 -49.438,28.224 -99.104,56.224 -149,84 -2.957,-4.292 -6.29,-8.292 -10,-12 0.79,-1.294 1.79,-2.461 3,-3.5 47.884,-22.615 95.551,-45.115 143,-67.5 0.667,0 1,-0.333 1,-1 z"
       id="path2827" />
  </g>
  <g
     id="g2833"
     transform="translate(-324.5,-90.505247)">
    <path
       style="opacity:0.997"
       fill="#408dda"
       d="m 799.5,812.5 c 6.522,-0.323 12.855,0.01 19,1 -34.304,24.157 -68.638,48.324 -103,72.5 -1.537,1.11 -2.203,2.61 -2,4.5 -15.281,9.952 -30.281,20.285 -45,31 -6.757,-7.872 -12.757,-16.206 -18,-25 49.896,-27.776 99.562,-55.776 149,-84 z"
       id="path2831" />
  </g>
  <g
     id="g2837"
     transform="translate(-324.5,-90.505247)">
    <path
       style="opacity:1"
       fill="#a19632"
       d="m 832.5,812.5 c -35.961,28.989 -71.961,57.989 -108,87 -3.876,-2.763 -7.543,-5.763 -11,-9 -0.203,-1.89 0.463,-3.39 2,-4.5 34.362,-24.176 68.696,-48.343 103,-72.5 4.57,-0.941 9.237,-1.274 14,-1 z"
       id="path2835" />
  </g>
  <g
     id="g2841"
     transform="translate(-324.5,-90.505247)">
    <path
       style="opacity:0.992"
       fill="#f5e245"
       d="m 832.5,812.5 c 9.667,0 19.333,0 29,0 -35.46,38.302 -71.626,76.302 -108.5,114 -10.291,-8.123 -19.791,-17.123 -28.5,-27 36.039,-29.011 72.039,-58.011 108,-87 z"
       id="path2839" />
  </g>
  <g
     id="g2845"
     transform="translate(-324.5,-90.505247)">
    <path
       style="opacity:1"
       fill="#fc4e56"
       d="m 731.5,814.5 c -49.906,12.467 -99.906,24.633 -150,36.5 -2.652,0.353 -4.652,1.52 -6,3.5 -17.221,4.113 -34.555,8.113 -52,12 -1.147,-0.318 -1.981,-0.984 -2.5,-2 -3.078,-13.391 -6.245,-26.724 -9.5,-40 70.484,-3.65 140.984,-7.317 211.5,-11 3.021,0.002 5.854,0.336 8.5,1 z"
       id="path2843" />
  </g>
</svg>
