<svg width="24" height="24" viewBox="0 0 24 24" fill="none" xmlns="http://www.w3.org/2000/svg">
<path d="M23.9871 1.00449L20.5586 21.5759C20.5185 21.8303 20.3579 22.0446 20.13 22.1781C20.0027 22.2479 19.8599 22.2847 19.7147 22.2853C19.6044 22.2824 19.4956 22.2597 19.3933 22.2183L13.3263 19.7406L10.0852 23.6917C10.0062 23.7893 9.90612 23.8677 9.79248 23.921C9.67884 23.9744 9.55459 24.0014 9.42905 23.9999C9.32829 24.0017 9.22817 23.9835 9.13446 23.9464C8.96962 23.8865 8.82722 23.7773 8.72657 23.6336C8.62593 23.49 8.57192 23.3188 8.57187 23.1434V18.4686L20.1433 4.28567L5.82693 16.6739L0.536782 14.5044C0.228637 14.3839 0.0278925 14.1029 0.00104276 13.7679C-0.0067358 13.6096 0.029121 13.4521 0.104701 13.3128C0.18028 13.1734 0.292678 13.0575 0.429633 12.9777L22.7146 0.120453C22.8439 0.0420511 22.9921 0.000404741 23.1432 4.67454e-06C23.3151 -0.000564065 23.4831 0.0507774 23.6253 0.147303C23.7607 0.241085 23.8667 0.3715 23.9308 0.523296C23.9949 0.675093 24.0144 0.841995 23.9871 1.00449Z" fill="white"/>
</svg>
