<svg width="422" height="283" viewBox="0 0 422 283" fill="none" xmlns="http://www.w3.org/2000/svg">
<rect width="422" height="283" rx="8" fill="#1F2937"/>
<rect width="422" height="16" fill="#111827"/>
<circle cx="10" cy="8" r="4" fill="#EF4444"/>
<circle cx="24" cy="8" r="4" fill="#FBBF24"/>
<circle cx="38" cy="8" r="4" fill="#34D399"/>
<path d="M22.992 40.54V39.099C22.288 39.0403 21.7343 38.8167 21.331 38.428C20.9277 38.032 20.7223 37.515 20.715 36.877H21.892C21.892 37.1923 21.9873 37.4527 22.178 37.658C22.376 37.856 22.6473 37.9807 22.992 38.032V35.436L22.739 35.37C22.1523 35.2013 21.6977 34.9153 21.375 34.512C21.0597 34.1013 20.902 33.6137 20.902 33.049C20.902 32.4403 21.089 31.9417 21.463 31.553C21.837 31.1643 22.3467 30.9407 22.992 30.882V29.43H23.663V30.871C24.3083 30.9297 24.8217 31.1533 25.203 31.542C25.5843 31.9233 25.7787 32.422 25.786 33.038H24.598C24.598 32.7373 24.5173 32.4917 24.356 32.301C24.1947 32.103 23.9637 31.9783 23.663 31.927V34.402L24.059 34.523C24.6457 34.6843 25.0967 34.9703 25.412 35.381C25.7273 35.7917 25.885 36.283 25.885 36.855C25.885 37.4783 25.6833 37.9917 25.28 38.395C24.884 38.7983 24.345 39.033 23.663 39.099V40.54H22.992ZM23.663 38.043C23.993 37.9917 24.2497 37.867 24.433 37.669C24.6163 37.471 24.708 37.2143 24.708 36.899C24.708 36.5763 24.6053 36.3013 24.4 36.074C24.202 35.8467 23.9233 35.7037 23.564 35.645L23.663 35.414V38.043ZM22.992 34.732V31.927C22.6987 31.9783 22.4713 32.0957 22.31 32.279C22.156 32.455 22.079 32.686 22.079 32.972C22.079 33.324 22.1927 33.621 22.42 33.863C22.6547 34.0977 22.9847 34.237 23.41 34.281L22.992 34.732Z" fill="#34D399"/>
<path d="M100.072 40.98V32.95H101.249V34.105H101.502L101.249 34.38C101.249 33.9033 101.396 33.5293 101.689 33.258C101.99 32.9793 102.39 32.84 102.888 32.84C103.497 32.84 103.981 33.0453 104.34 33.456C104.707 33.8593 104.89 34.413 104.89 35.117V36.822C104.89 37.2913 104.806 37.6983 104.637 38.043C104.476 38.3803 104.245 38.6443 103.944 38.835C103.651 39.0183 103.299 39.11 102.888 39.11C102.397 39.11 102.001 38.9743 101.7 38.703C101.4 38.4243 101.249 38.0467 101.249 37.57L101.502 37.845H101.227L101.26 39.253V40.98H100.072ZM102.481 38.076C102.87 38.076 103.171 37.966 103.383 37.746C103.603 37.5187 103.713 37.1923 103.713 36.767V35.183C103.713 34.7577 103.603 34.435 103.383 34.215C103.171 33.9877 102.87 33.874 102.481 33.874C102.107 33.874 101.81 33.9913 101.59 34.226C101.37 34.4533 101.26 34.7723 101.26 35.183V36.767C101.26 37.1777 101.37 37.5003 101.59 37.735C101.81 37.9623 102.107 38.076 102.481 38.076ZM108.439 39.11C107.808 39.11 107.31 38.9487 106.943 38.626C106.584 38.296 106.404 37.8487 106.404 37.284C106.404 36.712 106.595 36.2647 106.976 35.942C107.365 35.612 107.896 35.447 108.571 35.447H110.254V34.886C110.254 34.556 110.151 34.2993 109.946 34.116C109.741 33.9327 109.451 33.841 109.077 33.841C108.747 33.841 108.472 33.9143 108.252 34.061C108.032 34.2003 107.904 34.3873 107.867 34.622H106.701C106.767 34.0793 107.016 33.6467 107.449 33.324C107.889 33.0013 108.443 32.84 109.11 32.84C109.829 32.84 110.397 33.0233 110.815 33.39C111.233 33.7493 111.442 34.2407 111.442 34.864V39H110.287V37.889H110.089L110.287 37.669C110.287 38.109 110.118 38.461 109.781 38.725C109.444 38.9817 108.996 39.11 108.439 39.11ZM108.791 38.197C109.216 38.197 109.565 38.0907 109.836 37.878C110.115 37.658 110.254 37.3793 110.254 37.042V36.25H108.593C108.285 36.25 108.039 36.3343 107.856 36.503C107.68 36.6717 107.592 36.9027 107.592 37.196C107.592 37.504 107.698 37.7497 107.911 37.933C108.124 38.109 108.417 38.197 108.791 38.197ZM113.264 40.98V32.95H114.441V34.105H114.694L114.441 34.38C114.441 33.9033 114.588 33.5293 114.881 33.258C115.182 32.9793 115.581 32.84 116.08 32.84C116.689 32.84 117.173 33.0453 117.532 33.456C117.899 33.8593 118.082 34.413 118.082 35.117V36.822C118.082 37.2913 117.998 37.6983 117.829 38.043C117.668 38.3803 117.437 38.6443 117.136 38.835C116.843 39.0183 116.491 39.11 116.08 39.11C115.589 39.11 115.193 38.9743 114.892 38.703C114.591 38.4243 114.441 38.0467 114.441 37.57L114.694 37.845H114.419L114.452 39.253V40.98H113.264ZM115.673 38.076C116.062 38.076 116.362 37.966 116.575 37.746C116.795 37.5187 116.905 37.1923 116.905 36.767V35.183C116.905 34.7577 116.795 34.435 116.575 34.215C116.362 33.9877 116.062 33.874 115.673 33.874C115.299 33.874 115.002 33.9913 114.782 34.226C114.562 34.4533 114.452 34.7723 114.452 35.183V36.767C114.452 37.1777 114.562 37.5003 114.782 37.735C115.002 37.9623 115.299 38.076 115.673 38.076ZM122.236 39.11C121.744 39.11 121.312 39.0147 120.938 38.824C120.571 38.626 120.289 38.351 120.091 37.999C119.893 37.647 119.794 37.2363 119.794 36.767V35.183C119.794 34.7063 119.893 34.2957 120.091 33.951C120.289 33.599 120.571 33.3277 120.938 33.137C121.312 32.939 121.744 32.84 122.236 32.84C122.734 32.84 123.167 32.939 123.534 33.137C123.9 33.3277 124.183 33.599 124.381 33.951C124.579 34.2957 124.678 34.7063 124.678 35.183V36.261H120.938V36.767C120.938 37.2143 121.048 37.5553 121.268 37.79C121.495 38.0247 121.821 38.142 122.247 38.142C122.591 38.142 122.87 38.0833 123.083 37.966C123.295 37.8413 123.427 37.6617 123.479 37.427H124.656C124.568 37.9403 124.304 38.351 123.864 38.659C123.424 38.9597 122.881 39.11 122.236 39.11ZM123.534 35.546V35.172C123.534 34.732 123.424 34.391 123.204 34.149C122.984 33.907 122.661 33.786 122.236 33.786C121.818 33.786 121.495 33.907 121.268 34.149C121.048 34.391 120.938 34.7357 120.938 35.183V35.458L123.622 35.447L123.534 35.546ZM126.653 39V32.95H127.797V34.105H128.083L127.72 34.82C127.72 34.1673 127.863 33.676 128.149 33.346C128.435 33.0087 128.861 32.84 129.425 32.84C130.071 32.84 130.58 33.0417 130.954 33.445C131.336 33.841 131.526 34.3873 131.526 35.084V35.491H130.305V35.183C130.305 34.7503 130.195 34.4203 129.975 34.193C129.763 33.9583 129.462 33.841 129.073 33.841C128.685 33.841 128.38 33.9583 128.16 34.193C127.948 34.4277 127.841 34.7577 127.841 35.183V39H126.653ZM135.427 39.11C135.134 39.11 134.899 39.0257 134.723 38.857C134.547 38.681 134.459 38.4463 134.459 38.153C134.459 37.8523 134.547 37.614 134.723 37.438C134.899 37.2547 135.134 37.163 135.427 37.163C135.728 37.163 135.962 37.2547 136.131 37.438C136.307 37.614 136.395 37.8523 136.395 38.153C136.395 38.4463 136.307 38.681 136.131 38.857C135.962 39.0257 135.728 39.11 135.427 39.11ZM139.647 40.98V39.88H141.165C141.568 39.88 141.883 39.77 142.111 39.55C142.338 39.33 142.452 39.0183 142.452 38.615V34.039H139.977V32.95H143.64V38.626C143.64 39.352 143.42 39.924 142.98 40.342C142.54 40.7673 141.946 40.98 141.198 40.98H139.647ZM142.991 31.905C142.734 31.905 142.529 31.839 142.375 31.707C142.221 31.5677 142.144 31.3843 142.144 31.157C142.144 30.9223 142.221 30.739 142.375 30.607C142.529 30.4677 142.734 30.398 142.991 30.398C143.247 30.398 143.453 30.4677 143.607 30.607C143.761 30.739 143.838 30.9223 143.838 31.157C143.838 31.3843 143.761 31.5677 143.607 31.707C143.453 31.839 143.247 31.905 142.991 31.905ZM148.013 39.11C147.383 39.11 146.884 38.9487 146.517 38.626C146.158 38.296 145.978 37.8487 145.978 37.284C145.978 36.712 146.169 36.2647 146.55 35.942C146.939 35.612 147.471 35.447 148.145 35.447H149.828V34.886C149.828 34.556 149.726 34.2993 149.52 34.116C149.315 33.9327 149.025 33.841 148.651 33.841C148.321 33.841 148.046 33.9143 147.826 34.061C147.606 34.2003 147.478 34.3873 147.441 34.622H146.275C146.341 34.0793 146.591 33.6467 147.023 33.324C147.463 33.0013 148.017 32.84 148.684 32.84C149.403 32.84 149.971 33.0233 150.389 33.39C150.807 33.7493 151.016 34.2407 151.016 34.864V39H149.861V37.889H149.663L149.861 37.669C149.861 38.109 149.693 38.461 149.355 38.725C149.018 38.9817 148.571 39.11 148.013 39.11ZM148.365 38.197C148.791 38.197 149.139 38.0907 149.41 37.878C149.689 37.658 149.828 37.3793 149.828 37.042V36.25H148.167C147.859 36.25 147.614 36.3343 147.43 36.503C147.254 36.6717 147.166 36.9027 147.166 37.196C147.166 37.504 147.273 37.7497 147.485 37.933C147.698 38.109 147.991 38.197 148.365 38.197ZM153.036 39V32.95H154.18V34.105H154.466L154.103 34.82C154.103 34.1673 154.246 33.676 154.532 33.346C154.818 33.0087 155.243 32.84 155.808 32.84C156.453 32.84 156.963 33.0417 157.337 33.445C157.718 33.841 157.909 34.3873 157.909 35.084V35.491H156.688V35.183C156.688 34.7503 156.578 34.4203 156.358 34.193C156.145 33.9583 155.845 33.841 155.456 33.841C155.067 33.841 154.763 33.9583 154.543 34.193C154.33 34.4277 154.224 34.7577 154.224 35.183V39H153.036Z" fill="white"/>
<path d="M34.1154 40.98V39.88H35.6334C36.0367 39.88 36.3521 39.77 36.5794 39.55C36.8067 39.33 36.9204 39.0183 36.9204 38.615V34.039H34.4454V32.95H38.1084V38.626C38.1084 39.352 37.8884 39.924 37.4484 40.342C37.0084 40.7673 36.4144 40.98 35.6664 40.98H34.1154ZM37.4594 31.905C37.2027 31.905 36.9974 31.839 36.8434 31.707C36.6894 31.5677 36.6124 31.3843 36.6124 31.157C36.6124 30.9223 36.6894 30.739 36.8434 30.607C36.9974 30.4677 37.2027 30.398 37.4594 30.398C37.7161 30.398 37.9214 30.4677 38.0754 30.607C38.2294 30.739 38.3064 30.9223 38.3064 31.157C38.3064 31.3843 38.2294 31.5677 38.0754 31.707C37.9214 31.839 37.7161 31.905 37.4594 31.905ZM42.4821 39.11C41.8514 39.11 41.3528 38.9487 40.9861 38.626C40.6268 38.296 40.4471 37.8487 40.4471 37.284C40.4471 36.712 40.6378 36.2647 41.0191 35.942C41.4078 35.612 41.9394 35.447 42.6141 35.447H44.2971V34.886C44.2971 34.556 44.1944 34.2993 43.9891 34.116C43.7838 33.9327 43.4941 33.841 43.1201 33.841C42.7901 33.841 42.5151 33.9143 42.2951 34.061C42.0751 34.2003 41.9468 34.3873 41.9101 34.622H40.7441C40.8101 34.0793 41.0594 33.6467 41.4921 33.324C41.9321 33.0013 42.4858 32.84 43.1531 32.84C43.8718 32.84 44.4401 33.0233 44.8581 33.39C45.2761 33.7493 45.4851 34.2407 45.4851 34.864V39H44.3301V37.889H44.1321L44.3301 37.669C44.3301 38.109 44.1614 38.461 43.8241 38.725C43.4868 38.9817 43.0394 39.11 42.4821 39.11ZM42.8341 38.197C43.2594 38.197 43.6078 38.0907 43.8791 37.878C44.1578 37.658 44.2971 37.3793 44.2971 37.042V36.25H42.6361C42.3281 36.25 42.0824 36.3343 41.8991 36.503C41.7231 36.6717 41.6351 36.9027 41.6351 37.196C41.6351 37.504 41.7414 37.7497 41.9541 37.933C42.1668 38.109 42.4601 38.197 42.8341 38.197ZM48.9018 39L46.8998 32.95H48.1098L49.3528 36.822C49.4335 37.0493 49.5031 37.2803 49.5618 37.515C49.6278 37.7423 49.6755 37.922 49.7048 38.054C49.7415 37.922 49.7891 37.7423 49.8478 37.515C49.9138 37.2803 49.9798 37.0493 50.0458 36.822L51.2668 32.95H52.4658L50.4638 39H48.9018ZM55.6735 39.11C55.0428 39.11 54.5442 38.9487 54.1775 38.626C53.8182 38.296 53.6385 37.8487 53.6385 37.284C53.6385 36.712 53.8292 36.2647 54.2105 35.942C54.5992 35.612 55.1308 35.447 55.8055 35.447H57.4885V34.886C57.4885 34.556 57.3858 34.2993 57.1805 34.116C56.9752 33.9327 56.6855 33.841 56.3115 33.841C55.9815 33.841 55.7065 33.9143 55.4865 34.061C55.2665 34.2003 55.1382 34.3873 55.1015 34.622H53.9355C54.0015 34.0793 54.2508 33.6467 54.6835 33.324C55.1235 33.0013 55.6772 32.84 56.3445 32.84C57.0632 32.84 57.6315 33.0233 58.0495 33.39C58.4675 33.7493 58.6765 34.2407 58.6765 34.864V39H57.5215V37.889H57.3235L57.5215 37.669C57.5215 38.109 57.3528 38.461 57.0155 38.725C56.6782 38.9817 56.2308 39.11 55.6735 39.11ZM56.0255 38.197C56.4508 38.197 56.7992 38.0907 57.0705 37.878C57.3492 37.658 57.4885 37.3793 57.4885 37.042V36.25H55.8275C55.5195 36.25 55.2738 36.3343 55.0905 36.503C54.9145 36.6717 54.8265 36.9027 54.8265 37.196C54.8265 37.504 54.9328 37.7497 55.1455 37.933C55.3582 38.109 55.6515 38.197 56.0255 38.197Z" fill="#A3BFF7"/>
<path d="M67.7099 35.909V34.831H71.2299V35.909H67.7099ZM73.6896 40.98V39.88H75.2076C75.611 39.88 75.9263 39.77 76.1536 39.55C76.381 39.33 76.4946 39.0183 76.4946 38.615V34.039H74.0196V32.95H77.6826V38.626C77.6826 39.352 77.4626 39.924 77.0226 40.342C76.5826 40.7673 75.9886 40.98 75.2406 40.98H73.6896ZM77.0336 31.905C76.777 31.905 76.5716 31.839 76.4176 31.707C76.2636 31.5677 76.1866 31.3843 76.1866 31.157C76.1866 30.9223 76.2636 30.739 76.4176 30.607C76.5716 30.4677 76.777 30.398 77.0336 30.398C77.2903 30.398 77.4956 30.4677 77.6496 30.607C77.8036 30.739 77.8806 30.9223 77.8806 31.157C77.8806 31.3843 77.8036 31.5677 77.6496 31.707C77.4956 31.839 77.2903 31.905 77.0336 31.905ZM82.0563 39.11C81.4257 39.11 80.927 38.9487 80.5603 38.626C80.201 38.296 80.0213 37.8487 80.0213 37.284C80.0213 36.712 80.212 36.2647 80.5933 35.942C80.982 35.612 81.5137 35.447 82.1883 35.447H83.8713V34.886C83.8713 34.556 83.7687 34.2993 83.5633 34.116C83.358 33.9327 83.0683 33.841 82.6943 33.841C82.3643 33.841 82.0893 33.9143 81.8693 34.061C81.6493 34.2003 81.521 34.3873 81.4843 34.622H80.3183C80.3843 34.0793 80.6337 33.6467 81.0663 33.324C81.5063 33.0013 82.06 32.84 82.7273 32.84C83.446 32.84 84.0143 33.0233 84.4323 33.39C84.8503 33.7493 85.0593 34.2407 85.0593 34.864V39H83.9043V37.889H83.7063L83.9043 37.669C83.9043 38.109 83.7357 38.461 83.3983 38.725C83.061 38.9817 82.6137 39.11 82.0563 39.11ZM82.4083 38.197C82.8337 38.197 83.182 38.0907 83.4533 37.878C83.732 37.658 83.8713 37.3793 83.8713 37.042V36.25H82.2103C81.9023 36.25 81.6567 36.3343 81.4733 36.503C81.2973 36.6717 81.2093 36.9027 81.2093 37.196C81.2093 37.504 81.3157 37.7497 81.5283 37.933C81.741 38.109 82.0343 38.197 82.4083 38.197ZM87.079 39V32.95H88.223V34.105H88.509L88.146 34.82C88.146 34.1673 88.289 33.676 88.575 33.346C88.861 33.0087 89.2864 32.84 89.851 32.84C90.4964 32.84 91.006 33.0417 91.38 33.445C91.7614 33.841 91.952 34.3873 91.952 35.084V35.491H90.731V35.183C90.731 34.7503 90.621 34.4203 90.401 34.193C90.1884 33.9583 89.8877 33.841 89.499 33.841C89.1104 33.841 88.806 33.9583 88.586 34.193C88.3734 34.4277 88.267 34.7577 88.267 35.183V39H87.079Z" fill="#E0EAFC"/>
</svg>
